<svg xmlns="http://www.w3.org/2000/svg" data-name="Слой 1" viewBox="0 0 237.66 236.21">
  <ellipse cx="118.83" cy="118.11" rx="118.83" ry="118.11" fill="#a39669"/>
  <path d="M145.41 154.3c-.86-1.37-1.75-2.72-2.6-4a6.47 6.47 0 00.42 1.7c.45.84 1.09 1.59 1.63 2.4s1.17 1.75 1.69 2.66c0 .05.58.66 1.36 1.52a8.73 8.73 0 01-.75-1.26 29.13 29.13 0 00-1.75-3.02zm-5.93-31.04c.61 1.51 1.49 2.92 2.25 4.37l.3-.14c-.49-.89-1-1.78-1.47-2.68a3.85 3.85 0 01-.61-1.69l-.57-.15c.03.1.03.19.1.29z" fill="#272727"/>
  <path d="M101.68 24.99c-.06.09-.25.1-.38.15h-.11c.24 1.52.57 3 .69 4.55.2 2.66.3 5.32.38 8 0 1.37.34 1.72 1.58 1.41-.53 4.66-.72 9.34-2.21 13.76-1.22 3.6-2.7 7-5.73 9.47-1 .78-2.49 2.11-3.38 3-4.11 4.13-8.28 8.21-12.37 12.37-1.36 1.37-2.35 3.21-3.93 4.23a9.2 9.2 0 00-4.07 5.77 51.46 51.46 0 00-1.51 9.64 57.62 57.62 0 01-4.16 19.57 24.23 24.23 0 00-1.72 8.91c0 1.62 0 3.24-.13 4.86a2.93 2.93 0 01-.47 1.45c-1.3 2-2.65 4.05-4 6.07-1.14 1.72-1.54 2.9-1.4 4 1.08-3.69 3.65-6.42 5.93-9.41a18.79 18.79 0 010 3.27c0 .67-.1 1.33-.15 2a11.27 11.27 0 00.92-7 6.76 6.76 0 01-.13-1c0-1.47.21-2.94.17-4.41a21.54 21.54 0 012.16-9.54 38.25 38.25 0 001.75-4.71 67.82 67.82 0 002-12.34c.29-3.45.9-6.85 1.37-10.27.25-1.76 1.51-2.33 3.12-2.47h.71l-.07-.46-2.76.6c.48-1.7 1.75-2.16 3.13-2.53l-1.5.04a2.17 2.17 0 012.48-1.43c1 .2 2.05.44 3.08.65l.05-.23-3.79-1.06c1.43-1.55 3.14-.78 4.77-.51v-.3l-3.24-.69c1.26-1.71 1.26-1.71 3.64-1.16l-1.61-1a1.65 1.65 0 012.33-.93l-.92-.76c1.43-1.36 2.89-.16 4.36-.18l-3.15-1.03 2.12-1.65c-.07-.68.94-1.61 2.2-1.77-.11-.25-.11-.25 1.92-1.34-.28-.15-.54-.28-.8-.43.69-1 1.49-1.69 2.85-1.2.85.31 1.49.2 1.78-.62a1.82 1.82 0 012.1-1.27c.78.21 1.56.4 2.34.59l.05-.21-3.46-1c.74-.91 1.09-2.24 2.72-1.84-.07.29-.14.54-.23.9 1.72-1 1.88-1 3-.22l-.77 1.18 2.12-1.2c-.34-.89.58-.88 2.61-.5l-2 1.89c3.7-2.42 3.93-1.94 5.86-.89l-3.68 1.75.14.27c1.21-.37 2.39-.8 3.62-1.09 1.55-.36 2-.12 2.81 1.41a1.9 1.9 0 01-2.11-.23 4.59 4.59 0 00-1.72-.45l-.06.28 1.69.82-2.79.74.06.16 3.77-.27c.5-.14 1.14-.54 1.53-.37s.74.91 1.16 1.5l-5.11.8v.3l3.51-.27v2.3l-3.75.32v.14l3.52-.11c.17.6.3 1 .43 1.47l-5 .2v.36l7.3.08c-.22.71.23 1.73-1.1 1.8a5.75 5.75 0 00-.06-.91c0-.2-.21-.54-.29-.53-.23 0-.58.13-.63.29-.34 1.27-1.34 1.18-2.36 1.11s-2.23-.11-3.34-.15l-1.84-.08v.34l6.49.59c-.38 1.73-.38 1.74-2.06 1.6l-6.45-.58a5 5 0 00-.67 0v.32l8 1.09c-.7 2-.31.9-5.26 1a9.13 9.13 0 01-2.64-.49 4.13 4.13 0 00-1.11-.09v.33l7.68 1.31a2 2 0 01-2.61 1.37c-1.43-.36-2.89-.53-4.34-.77-.3 0-.6 0-.91-.08v.39l6 1.33a1.49 1.49 0 01-1.92.91c-2.32-.42-4.65-.8-7-1.19-.34-.06-.68-.08-1-.12l-.06.42 8.16 1.9a1.53 1.53 0 01-1.91.83c-2.54-.51-5.1-1-7.65-1.44-.25 0-.52-.06-.78-.09v.34l8.6 2.11.05.29a4.36 4.36 0 01-1.37.17c-2.75-.45-5.48-1-8.23-1.46-.25 0-.51 0-.77-.08v.3l9.15 2a1.79 1.79 0 01-2.35 1c-2.66-.65-5.34-1.2-8-1.8l-.15.31 8.62 2.37c-1 1.42-2.38.4-3.54.26a34.91 34.91 0 01-3.72-.83l-.06.34 5.88 1.52a1.73 1.73 0 01-2.28.8c-.72-.27-1.49-.4-2.24-.62s-1.71-.54-2.57-.81c0 .13-.07.25-.11.37l5.37 1.85-1 1.07a3.22 3.22 0 001.28-.51 8 8 0 011.17-.38c-1.31 1.83-1.31 1.84-3.28 1.1-1-.37-1.92-.85-2.91-1.2a1.13 1.13 0 01-.85-1.27c0-1-.15-1.94-.23-2.91h-.37l.26 4.06 5.31 2.32c-1.44 1.62-2.82-.39-4.44-.14l2.88 1.32a1.8 1.8 0 01-2.47.57 7.89 7.89 0 00-2.09-.33l-2.06-2.71.24-.22 2.21.98a1.73 1.73 0 00-1.09-2 1.3 1.3 0 01-.67-.61 10 10 0 00-3.94-4.94 2.64 2.64 0 00-.69-.13c.88 1 1.62 1.8 2.35 2.61l-.19.28c-2.46-.08-4.07-2.67-6.7-2.71l4.41 2.61-.72.86c1.52-.32 2.23.54 2.77 1.71a1.64 1.64 0 01-2-.24c-1.46-1-3-1.9-4.59-2.8a4.79 4.79 0 00-1.09-.35 24.45 24.45 0 002.87 1.85c1 .62 1.84 1.36 2.75 2l-.19.42a5.51 5.51 0 01-1.14-.32c-1.94-1-3.47-1.43-4.36-1.25l4.34 1.8-.12.61a5.38 5.38 0 01-1.56-.08 9.84 9.84 0 00-4.37-.72l4.46 1.4v.53c-.42 0-.83.11-1.24.11h-5c-.19 0-.38.17-.57.26 2.51-.13 4.91-.09 7.12 1.42a1.7 1.7 0 01-1.15.06 7.29 7.29 0 00-6.09.64 10.52 10.52 0 016.46.23c-.15.38-.29.72-.41 1-3.93-.53-5.73-.42-6.74.41 6 .11 7 .27 7.77 1.59a11.3 11.3 0 00-7.83.16l6.19.16c0 .19.05.39.07.59a8.66 8.66 0 01-1.12.17c-1.34.06-2.68.06-4 .13a5.5 5.5 0 00-1.17.32l.07.19 5.28.14c-.44 1.58-.52 1.59-1.4.8l-4.58.36v.3l3 .24.09.44-3.53.67.06.3h2.92c.2 1.07-.14 1.57-1.19 1.58a14.09 14.09 0 00-1.7.21v.32h2.66c0 .54 0 1-.08 1.74l-2.85.07v.2h2.81c0 .38 0 .7.07 1.37l-2.91.11v.18h2.94c0 .75.07 1.37.09 2l-3.2.25v.36l3.19.07v1l-3.72-.15v.35l3.69.53v.79l-5.15-.12v.33c1.48.24 3 .46 4.44.75.27.05.48.45.73.68a16.7 16.7 0 01-3 .07c-.9 0-1.79.1-2.68.16a32.47 32.47 0 004.59.8c.26 0 .49.33.74.5a2.66 2.66 0 01-.81.33c-1.64.06-3.29.06-4.94.11a2.94 2.94 0 00-.74.21v.25l6.12.34.15.5c-.33.14-.65.42-1 .41-1.45 0-2.91-.16-4.37-.23a8.59 8.59 0 00-1 .08v.37l5.81.82c0 .15.07.3.1.46a3.07 3.07 0 01-1 .29c-1.53-.11-3.07-.28-4.6-.43v.46l5.11 1v.46c-1.5.51-3.2-.65-4.72.14l4.16.93v.47c-1 1.09-2.77-.44-4.12.55l5.25 1.11-.53 1c-.89-.22-1.7-.48-2.54-.62s-1.57-.14-2.36-.21v.31c1.44.54 3.12.45 4.31 1.77l-3.9-.57v.35l3.18 1.13-.1.21-3.44-.24v.43l2.94.85c-.84 1.54-2.34-.11-3.34.74l2.25.76c-.45 1.57-2 .18-2.76 1l1.68.57c0 .12.06.23.1.35l-1.85.72.72.49c-.2 1.44-1.44.33-2.28.78l1.47.75c-.39 1.89-1.83.16-2.75.68l2.2.87v.34c-1.28.71-2.68-.31-4-.29l-.06.31 3.88 1.15c0 .25.07.59.13 1.18l-4.35-1a7.67 7.67 0 002.16 1.19 22.62 22.62 0 002.35.42v.3a10.12 10.12 0 01-5-.75c2 1.74 4.2 1.77 6.51 1.52-1.58.87-3.2.45-4.83-.07-1.82-.57-3.62-1.16-3.28-4-.72 1.65-.19 3.17 1 3.73.75.34 1.51.64 2.28.91a7.78 7.78 0 004.82.32s.22-.08 2.68-1.5 9.28-3.83 9.78-9.21c.33-3.63.12-5 .22-6.58l-.32-1.92.07.63c1.05-.86 1-2.9 2-3.53 2.32-1.45 1.21-.76 6.16-2.29a62.32 62.32 0 016.36-.59 79.85 79.85 0 019.56-.66c1 0 11 .07 16.23.3a132.83 132.83 0 0119.1 2.09 3.84 3.84 0 011.46-4.72 7 7 0 017.74-.54c3.4 1.72 5.41 4.55 7.29 7.53a30.25 30.25 0 014.46 10.41c0-.48.05-1 .08-1.47 1.38.74 1.28 1.38-.45 2.73a48.65 48.65 0 00-5.12-11.34 25.87 25.87 0 00-5-6.22c-2.36-2-6.63-2.07-9.28 0a6.09 6.09 0 00-.88 1.15c2.12-1.77 3.8-2.35 4.55-1.56-.5.12-1 .21-1.41.36s-.86.37-1.56.68c1.38 0 2.41-1 3.76.09l-2.35.6c1.26.08 2.5-.35 3.59.68l-2.83-.16v.32l1.72.07.06.25-3.72.93c0-.27 0-.45-.06-.77l-.56.86 1.19.32c1.34-.36 2.6-.7 3.84-1.07a5.09 5.09 0 001.09-.75l1.56.77v.28l-4.32 1.45c1-.21 2-.41 3.06-.64.47-.1.93-.27 1.39-.41a7.06 7.06 0 011.57 4.43 3 3 0 01-2.19 2.71 4.87 4.87 0 01-1.14.31v.31c3.41-.66 4.34-2.55 3.42-6.77.14.2.36.39.41.61.23 1 .38 2.09.62 3.13a2.16 2.16 0 01-1.4 2.61 14.05 14.05 0 01-3 .75c.35 3.31-5.52-5-5.34-4.82.48.39 7.52 14.2 8 14.51.64.43 1.31.7.86.68-.23 0 .55.79.33.72-3.58-1.32-7.7 2.59-7.92 6.59a21.41 21.41 0 012.48-3.61c1.24-1.23 3-.92 5-.75l-3.72.81.07.37c3.39-1.34 6.17-.28 8.52 2.42a5.5 5.5 0 01.5.81c-3.56-3.73-8.79-4.22-11.1-.91 3.78-2.88 8.55-2.21 10.34 1.55l-.93.85c-3.09-4-6.57-4.33-9.53-.94a35 35 0 013.11-1.62 4.25 4.25 0 013.58.15 4.57 4.57 0 012.29 2.71l-1.1.87 3.05-1.26.13.21-3.65 2.19.13.21 4.25-2.33c.2 1.44.42 2.82.6 4.21a2 2 0 01-.17 1c-1.21 2-4.8 3-7 1.81-.22-.12-.37-.38-.56-.57l-3.76-3.79c1.62 3.68 4.83 5.57 8.37 5.13a3.93 3.93 0 003.66-4.82c-.23-1.3-.65-2.58-1-3.88a2 2 0 01.05-.63h.39c.46 1.68.86 3.38 1.4 5a3.08 3.08 0 01-1 3.42 7.12 7.12 0 01-6.42 2.07l-1.33-.18c1.29.67 1.29.67 1.19 1.44l.53.69-.22.17-1.46-1.34c.57.63 1.15 1.28 1.69 1.9a23.19 23.19 0 014.63 1.64c3.74.3 6.24-1.51 8.07-4.52a6.78 6.78 0 011.11-1.39 5.58 5.58 0 001.84-5.24 11.83 11.83 0 00-.43-2.13c-1.05-3-2.15-6-3.28-9.1.2-.23.56-.6.9-1 1.88-2.21 2.18-5 2.51-7.77.24-2 .44-4 .81-6 1.06-5.79 2.79-11.44 2.88-17.42.07-4.76 0-9.53.08-14.3.11-10.73-1.66-21-8.17-30.35a14.12 14.12 0 01-2.47-11.11c.87-4.49 1.82-9 2.76-13.44.52-2.52.54-2.51 3.14-2.31 2 .15 2.84-.47 3.22-2.35a11.2 11.2 0 00.25-2.29c0-1.55-.1-3.1-.15-4.84l1 .11v-.21l-1-.33c-.12-2.29-.23-4.52-.34-6.75h-.49v6.54c-11.44-2.12-17.44-2.74-25-2.59-8.51.16-22.8 2.16-24.56 3.53a108.12 108.12 0 0124.76-3 109.29 109.29 0 0125 2.71c0 2 .17 3.9.13 5.82-.06 2.88-1.39 3.78-5 2.43l3.37-.13v-.32l-1-.07.76-.86c-1-.79-2-1.56-3-2.27-1.54-1.06-3.32-1-5-1.31a88 88 0 00-18.51-1.86c-6.54.11-13.05.84-19.53 1.59A69.67 69.67 0 00105 36.46c-.82.3-1.62.62-1.08 1.77v.22l-1.13.31a19.68 19.68 0 00.23-2.93c-.18-2.15-.44-4.31-.78-6.45a1.86 1.86 0 01.57-1.92l1.6-1.41-.17-.18-2.18 1.79a2.26 2.26 0 01.47-3M92.8 68.85l-2-.37-.12-.39 2.26-.93.26.35c-.15.39-.27.8-.43 1.32zm.24-2.05l-.36-.35 1.67-1.56.29.25zm-19.32 59.35c.06-1 .06-1 1.3-.57-.01 1.23-.73.73-1.3.57zm1.09-1.69c-.27-.12-.45-.48-.67-.73l.48-.44 1 .93c-.28.05-.61.24-.81.24zm4.44-17.9l-1.26-.36c.09-.78 0-1.63 1.32-1-.02.38-.04.77-.06 1.32zm5.46-14.1c1.61-.27 2 .79 2.6 1.65-1.51.35-1.63-1.1-2.6-1.65zm17.35 1.3l.15.43-2.18.68c.27-1.41 1.07-1.41 2.03-1.12zm-4.61 3c.78-.74 1.24-1.94 2.73-1.29-.88 1.35-1.58 1.7-2.77 1.33zm2.9.42c.89-.62 1.17-1.78 2.83-1.44-.96.72-1.29 1.84-2.83 1.48zm1-4.05c.63-1.16.63-1.16 2.11-.82l.09.32c-.62.2-1.29.35-2.14.54zm1.43-1.72a1.61 1.61 0 012.36-.9 1.58 1.58 0 01-2.32.95zm2.88.54l-.17-.35c.33-.81.82-1.33 1.84-.89l.19.41zm-1.25-3.71c.82-1.62 2-.82 3.17-.78-.79 1.57-2.03.52-3.17.78zm46.91 46.48c-.75.2-1.58.89-2.29-.35.75-.16 1.37-.32 2-.41.17 0 .38.12.56.19-.08.2-.12.53-.26.57zm-2.84-1.16l2.85-.61c-.21.27-.32.59-.48.6-.78.06-1.53.8-2.36 0l-.89-.37a15.91 15.91 0 002.25-.84c.61-.35 1.09-.9 1.76-1.21-.44 1.51-1.89 1.84-3.12 2.43zm13.69-33.21c-.6-2.89-.6-2.89.26-3.23-.14 1.02.84 2.08-.25 3.23zm-.65-4.1c-.08-.72-.66-1.41.24-1.81.08.59.85 1.31-.23 1.81zm-.69-2.78c.25-.88-.87-1.77.21-2.51.77 1.62.75 2.17-.2 2.5zm-.08-11.59a8.43 8.43 0 01.62 1.19c.06.21-.11.49-.18.74l-.34-.08a6.57 6.57 0 01-.56-1.25c-.03-.17.3-.4.47-.6zm-.42 5.43c0 1 1 1.91.12 3.06-1.04-2.01-1.04-2.8-.11-3.06zm0 13.39H160c-.67-1.19-.74-2.41 0-2.89zm-1.26-3.59c.06-.79-.93-1.57.5-2.21-.08.87.76 1.65-.46 2.21zm-1.38-1.65c.07.62.14 1.2.22 1.93l-3.23.68c0-.58-.07-1.23-.12-1.93zm-3.22-.31c-.13-.74-.23-1.3-.34-2l2.94-.83c.17.7.32 1.34.51 2.14zm3.73 3.19l.39 2.77-1.66.36c-.14-.93-.26-1.79-.39-2.71zm.49 7.48c.27 1.59 0 1.88-2 2-.28-1.64 1.15-1.49 2-1.98zm-1.67-.13c0-1 0-1 1.75-1.92.33 1.59-.96 1.47-1.75 1.94zm1.39-11.55c-.21-.63-.41-1.27-.64-2l1-.36c.78 1.68.72 2.17-.36 2.36zm-9.61-20.37c-1.2 1.06-1.35 1-2.12-.27zm-2.74-29l-.32-.06c-.32-1.49-.15-2.47.67-2.9-.11 1.07-.22 2.01-.33 2.95zm4.68 31.28c-1.59.77-1.59.77-2.47-.53.92-.35 1.81-.94 2.49.52zm.8.88l.84 1.26c-1.28.71-1.39.67-2.26-.76zm-.5-2.17l.14-.35 1.67.52v.33l-1.13.47zm2.63 4.82c0 .09-.06.18-.1.28l.42.93c-.22.08-.53.32-.66.24a20.56 20.56 0 01-1.81-1.32l4.34-1.51c.3.44.61.87.94 1.34a2.17 2.17 0 01-3.11.03zm1.82 2.77c-.91.85-1.27.82-1.82-.24.74-.07 1.35-.85 1.84.23zm-5.18-3.37l-2 .56-.65-1.08c1.51-.94 1.69-.91 2.67.51zm2 2.42l-1.91.59a5.49 5.49 0 01-.71.12l-.85-1.5c2.08-1.15 2.3-1.08 3.5.78zm1.1 1.73c-2.07 1-2.65 1-3.06 0 2.26-.88 2.6-.88 3.06 0zm.7 1l1 1.92-3.07.84c-.28-.65-.54-1.24-.86-2zm1.11 2.92c.16 0 .42.35.82.71l-3.24 1-.42-1c1.03-.3 1.91-.58 2.85-.76zm.4-1.18l-1-1.9 1.53-.49c.18.32.36.6.5.89s.24.56.41 1zm.52.85l1.27-.36.28.3c-.23.25-.41.62-.7.72s-.62-.12-.94-.21zm1.27-3.63l1.19-.45c.23.59.47 1.13.64 1.69 0 .08-.42.37-.43.36-.5-.47-.91-.97-1.4-1.6zm1.74-4.56c-1.23.82-1.25-.41-1.85-.79 1.11-.8 1.22.26 1.8.79zm-1.11 3.13c-.61.43-1.19.72-1.77-.35.66-.27 1.31-1.04 1.72.35zm-.86-5.27c-.79.44-.83.42-1.84-.89.75-.42.91-.34 1.79.89zm-2 1l-2.1.76-.69-1.41c1.45-.96 1.45-.96 2.74.63zm-3.19-40.7h.38c0 .8-.07 1.59-.1 2.39l-.42-.06c-.01-.76-.44-1.64.09-2.35zm1 35.88c-.83.93-1.73.58-2.79-.08.93-.5 1.79-1.37 2.74.06zm-5.29-1c1.11-.31 1.92-1.74 3.68-.63-1.48.19-2.27 1.59-3.73.58zm2.38-30.49c-.14 1-.26 1.87-.37 2.71-.76-1.14-.58-2.26.32-2.76zm-.76-1.29c-.06-.8-.11-1.58-.17-2.47l.84-.15c.29 1.97.2 2.35-.72 2.57zm.73-6c-.12.76.53 1.89-1.12 1.78-.14-.66-.27-1.32-.44-2.19zm-2.34-.11c-.18.86.52 1.79-.58 2.47-.17-.8-.3-1.42-.45-2.11zm-1.93 6.92c.1-1-.36-1.93.41-2.66.38 2.08.35 2.26-.46 2.59zm-.37-4.14c.29-.89-.86-1.9.71-2.4-.19.81.66 1.74-.71 2.4zm.45-3.52v.23l-2.63.68c-.08-.37-.16-.72-.28-1.25zm-2.21 8v-2.71h.49v2.72zm.4 1.36c-.06 1-.12 1.93-.17 2.89h-.42c0-1 .11-1.94.16-2.91zm0-5.59c-.83-1.48-.74-2 .26-2.21-.07.75-.15 1.46-.24 2.18zm-1.93 4.53c-.45-2-.37-2.61.37-2.8.47 1.58.34 2.55-.35 2.77zm.6 1.17c-.08 1.05-.17 2.05-.31 3.05-.68-1.25-.46-2.84.33-3.08zm-.93-5.08c-.16-1-.28-1.63-.41-2.4l1.06-.21a16.87 16.87 0 01.07 2c0 .14-.37.3-.7.58zm-1.09-4.48a7.55 7.55 0 001.75-.39v1.5l-3 .8v.22h1.18c.3 1.27.49 2.48-1.06 3-.11-.21-.32-.42-.33-.63-.1-1.58-.17-3.17-.26-5.07a7.45 7.45 0 001.74.54zm-1.39 8.89c.09-1.26.18-2.48.27-3.69l1.15.86c.33 2.12.13 2.69-1.4 2.8zm1.32.77c-.12 1.16-.23 2.25-.34 3.33h-.54c-.08-1.06-.15-2.12-.24-3.24zm-2.43-10c.25 5.14.51 10.21.76 15.27l-1.55.24c-.36-2.5.11-5-.14-7.51s-.28-5.21-.41-7.92zm-2.16.07c.08 1.84.15 3.55.22 5.21l-1.44.82.13.39 1.34.09c.06 1.22.81 2.69-1.17 3.39l.25.24 1.15.32c-.13 2.37-.27 4.73-.41 7.18l-1.49.05c0-1 0-2-.06-2.75l.93-.76-1-.78c-.26-4.24-.53-8.62-.8-13.06zm-.87 29.8l-2.11.63-.84-1.44c1.13-.06 2.12-.44 2.97.77zm-3.66-12c.8-.72 2.15-.78 2.61-.07zm-3.18-16.92c.2.54.36 1 .59 1.53.09.18.33.29.5.43.13-.19.38-.37.39-.57v-2.7l3.36 1c.14 2.56.29 5.35.43 8.13.06 1.29.14 2.58.1 3.86a10.54 10.54 0 01-.49 2.09c.94.11.6 1 .71 1.86l-2.57.18c-.28-2.23-.57-4.4-.81-6.57-.18-1.64-.29-3.27-.44-4.91-.17-1.91-.22-1.94-2.16-1.67a3.34 3.34 0 01-.41 0c-.14-.75-.29-1.49-.45-2.27zM96.5 63.87l3-2.16c.21.99-1.54 2.32-3 2.16zm4.49.45a1.69 1.69 0 01-.93.36 5.16 5.16 0 01-1.3-.51 6.11 6.11 0 011.31-.66 1.72 1.72 0 011 .23.67.67 0 01-.08.58zm-.18-2.21c-.27-1.3.8-1.62 3.47-1zm3.14.64l-.09-.51 2.87-.43v.23zm2.42.78v-.51l2.71.1c0 .2 0 .4-.05.6zm4.5 2.16l-2-1.06a1.45 1.45 0 012.18.68zm.27.78c.9-.16 1.07 0 1.68 1.37l-.28.27zm3 3.78l-1.12.06c-.14-.57-.27-1.07-.39-1.58.83-.27.85-.27 1.46 1.52zm.08.84c.35.05.6.92 1 1.64l-4 .35c-.07-.65-.13-1.21-.22-2a16.7 16.7 0 013.17.01zm3.5-2.62c1.76-.27 1.56 1 2.11 1.77-1.72.32-1.27-1.16-2.16-1.78zm2.69 4.76c.17.77.34 1.46-.88 1.27-.12-.68-.38-1.37.88-1.27zm-1.71 4.23l-1.45.11v-2h1c.16.64.28 1.19.45 1.89zm-2-11.09c1.15-.32 1.33.53 1.71 1.24-1.22.36-1.24-.63-1.68-1.23zm.54 6.29l-.78-.06h-.65c-.14-.48-.26-.93-.39-1.38 1.2-.51 1.43-.36 1.85 1.45zm-.83.8c.29 1.45.29 1.45-1.36 1.53-.08-.49-.14-.89-.23-1.45zm0 2.2c-.21 2-.21 2-1.51 1.94.07-.58.13-1.16.2-1.81zm-5.51-.42c.22-1.61.24-1.62 2.4-1.57v1.5zm1.45 3.16l.3.27-1 1.54-.32-.22c.23-.59.08-1.44.96-1.6zm-2.8 4.45l.28.3c-.44.59-.63 1.46-1.82 1.2zm-1.75 5.61c.24-1.41 1.17-.72 1.92-.8-.26 1.25-1.15.8-1.92.8zm.45-2c.8-1.35 1.82-.71 2.93-.6-.84 1.29-1.9.47-2.93.6zm1.89-1.83c.73-.74 1.16-1.88 2.7-1.37-.97 1.84-1.05 1.88-2.7 1.4zm2-2.66l1.91-1.19.23.35c-.33.78-.66 1.48-2.18.87zm1.83-1.93c.38-1.71.53-1.84 1.77-1.46-.5 1.6-.57 1.65-1.81 1.49zm1.53 5.08c.45-.82.37-2 1.94-1.65-.61.71-.62 1.79-1.98 1.68zm1.39-2.89c0-1.29.76-1.35 1.75-1.15-.14 1.06-.68 1.45-1.79 1.18zm.67-2.17c.1-.61.18-1.15.27-1.73l1.93-.1c-.35 1.96-.35 1.96-2.24 1.86zm1.79-2.53v-2.14l1.28-.22c-.47 1.09-.11 2.08-1.32 2.39zm8.79 29.52c-.06-.82-.44-1.69.88-2-.01 1.76-.01 1.76-.92 2.03zm.69-3.66l1.41-1.89.26.19-1.26 2zm1.17 3.13c-.11-1.56.08-1.8 1.57-1.94-.45 1.77-.45 1.77-1.61 1.97zm2.45 1.72c-.39-1.18.64-.82 1-1.23.34 1.13.34 1.13-1.04 1.26zm-.13-2.4c.21-.83.15-1.78 1.45-1.58-.03.96-.08 1.78-1.49 1.61zm1.32-3.43l-2.57 1.07c.84-2.06 1.46-2.34 4.1-2l-1.05 1.4zm4.17-4.13c-1 1.26-1.94 2.53-4.05 1.85 1.17-.9 2.12-2.09 4.01-1.82zm-3.76-.79l2.68-2 .24.32-2.71 2zm8.59-2.61c-.31 1.93-1.51 2.56-5.19 2.54 1.49-1.36 2.87-2.8 5.15-2.51zm-4.88-.48c.65-.59.93-1.59 1.94-1.78l.24.25-1.84 1.88zm6.21-5c.31 1.81.31 1.81-1.21 2l-.28-.26zm.17-1.51c.11.77.3 1.53-.92 1.38-.12-.63-.18-1.3.88-1.3zm-.19 3.9c-.47 2.27-.47 2.27-2.81 2.31.61-1.75.95-2.04 2.77-2.23zm-10.54-18.13c-1.4 0-.79-1.09-1.15-1.79 1.4.17 1.28.95 1.15 1.79zm1.53 34.09c-.08-.32-.15-.57-.23-.87l1.73-.55c.21.91.21.91-1.54 1.42zm-.21-2.28c.12-1.58.12-1.58 2.13-1.59.14 1.58-1.22 1.23-2.17 1.58zm9.9-5l2.77-.12c-.11.87-.2 1.68-.31 2.56l-2.36.17c.09.4.17.75.23 1l-7.65 2.67c.32-1.63.59-3 .83-4.27l-2.49.39c.16-1.84 1.75-1.6 3.08-2.18l-1.49-.42c1-1.14 1.56-2.59 3.61-2.44l-1.64 2.19.38.28c1.09-1.46 2.28-2.85 3.24-4.39s1.66-3.21 2.28-4.43c0-1.68-.06-3-.09-4.57l-.61-.67-.89 1.33-.31-.28-.61-1c-.19.29-.37.59-.57.87a2.77 2.77 0 01-.81.83c-.05-3.92-1.69-7.16-4.14-10.13a13.35 13.35 0 015 7.16l.35-.11a4.25 4.25 0 00.05-.79 9.17 9.17 0 00-2.84-5.46 49.49 49.49 0 00-4.52-3.91 1.49 1.49 0 01-.61-1.95l3.4 2.82.22-.08a4.38 4.38 0 00-.31-.81 9.49 9.49 0 00-5.15-4.22 44.09 44.09 0 00-5.26-1.39 5.2 5.2 0 01-3.23-2.29c-.63-.89-1.2-1.81-1.83-2.77l.38-.25a15.12 15.12 0 01-2.12-1.43 22.43 22.43 0 01-1.94-2.37l2.41.32c0-.11 0-.21.07-.32l-4-1.13.06-.25 9 1.93.11-.34c-.12-.13-.22-.32-.36-.37-6.92-2.31-13.9-3.65-21-2.1a31.87 31.87 0 00-3.88 1.1c-.39.15-.61.72-.92 1.08a6.36 6.36 0 01-1 1c2.15-4.28 4.12-8.61 4.76-13.44.38-2.86.62-5.76.73-8.66 0-1.27.24-2.1 1.66-2.2a7.72 7.72 0 001.32-.33v.3a4.51 4.51 0 001.36.23c2.86-.48 5.69-1 8.54-1.53s5.78-1 8.74-1.47c.24.9.45 1.7.68 2.55l-6.8 1.87c0 .12.07.23.1.35l6.85-1.38c.16.51.32 1 .48 1.48h.27c0-.53 0-1.06-.07-1.62l1.63-.62c0 .74 0 1.4-.07 2.31l-10.08 2a34.89 34.89 0 0010-1 12 12 0 010 1.34.59.59 0 01-.39.42c-1.61.07-3.08.68-4.67.84s-3.31.42-5 .64a2 2 0 00-.09.36l8.68-.69c.28 1.48.24 1.57-1.31 1.9-1.31.27-2.62.51-3.93.76l.07.39 5.18-.44v1.46l-2 .78v.33l1.91.33c0 .29.06.65.1 1.08l-12.43-.2v.26l12.43.52v.45l-3.27.1v.4l3.6.72c-2.9.14-5.82-.19-8.64.57l10.09 1.83v.32c-2-.17-3.92-.47-5.86-.48-2.48 0-5 .2-7.43.33-.87 0-1.74.19-2.61.16a27.84 27.84 0 00-8.15.64 78.1 78.1 0 0114 2.55 55 55 0 016.59 1.84c1.06.42 1.85 1.58 2.77 2.4l-.11.39-5 .27v.33l5.91-.16-1.53-2.76a2.06 2.06 0 012.11.78c.13.2 0 .57 0 .71l2 1.47c-.05.13-.09.26-.13.39l-8.07.53c4.57.94 8.94-.22 13.38-.74l.11.43-2 .62v.28l1.31.11v.18l-2.6.21h-.14c-.59.78.19.61.49.59 1.53-.09 3-.25 4.58-.34a3.42 3.42 0 011 .29v.45l-3.42.3v.31l2.89.15v.27l-6.27.33c.27.15.41.3.54.29 2.63-.11 5.25-.24 7.88-.36a6.8 6.8 0 011 .11c-.23.22-.43.55-.71.64-1.62.49-3.26.92-4.9 1.54a3.83 3.83 0 00.75 0c1.53-.3 3.07-.57 4.58-.94.66-.16 1-.07 1.15.71l-2.51 1 .1.33 1.45-.38.1.38-5.4 1.26v.26a4.78 4.78 0 001 0c2-.38 3.94-.79 5.92-1.17a7 7 0 011 0c0 .17.07.34.1.51l-6.76 2-.11.2a3.22 3.22 0 001.14.23c1.52-.3 3-.72 4.54-1 .31-.07.7.18 1.06.28 0 .15 0 .31-.05.46l-5.3 1.5v.31a3.66 3.66 0 001.11.15c1.4-.31 2.78-.72 4.2-1a3.06 3.06 0 011.13.24v.42l-5.27 1.29-.06.29a2.57 2.57 0 001 .26 27.84 27.84 0 003.9-.83 1.63 1.63 0 012.3 1l-5.5 1.57c.34.79.34.79 1.88.43l2.37-.59c.22.38.41.74.68 1.23l-3.71.83-.12.31c.35.15.73.45 1.05.41 1.09-.14 2.16-.4 3.29-.62l.88 1.73-3.83.82c0 .69.22.95.94.78a24.06 24.06 0 012.69-.5c.32 0 .7.21 1 .33l-.07.41-4 .88-.11.33c.3.14.63.42.89.38 1.24-.18 2.46-.46 3.73-.71l.87 2c-1.46.28-2.83.52-4.19.82a3.08 3.08 0 00-.8.49l.19.36 3-.39c.09.36.19.74.27 1.09-1.15.58-2.63.28-3.52 1.14l.23.49 3.54-.68c.11.88.21 1.7.31 2.55-1.55.29-3 .55-4.49.86-.1 0-.1.4-.23 1l2.61-.59c-.07.58-.14 1.17-.21 1.79-1 .22-2 .43-3 .68-.08 0-.07.33-.11.62l3-.19c0 .39-.1.72-.1 1 0 .94-.44 1.34-1.4 1.27a3.92 3.92 0 00-1.37.11 2.67 2.67 0 00-.8.6zm5.9 2.19l-2.65.23c0-.92 0-1.72.08-2.58l2.67-.23c-.07.81-.1 1.65-.14 2.56zm.1-3.68l-2.24.32c.3-2.78-.1-2.18 2.22-2.42-.03.66-.03 1.32-.02 2.08zm-1.87-2.88c-.13-.66-.26-1.27-.38-1.87l2.15-.19c0 .54 0 1.12.07 1.8zm1.46-7.91l1.53-.31.35 1-1.6.41c-.09-.4-.22-.71-.32-1.12zm2.19 1.55c.27.87.51 1.69.8 2.63l-1.89.42c-.12-.86-.22-1.66-.35-2.66zm1.07 3.58c0 .66.06 1.25.09 2l-2.12.41-.16-1.93zm-2 11.2c0-.33.06-.64.1-1.09h1.26c.12 1.03.07 1.08-1.37 1.09zm.16-2.14v-2.57l2.07-.38c.14 2.65-.05 2.91-2.08 2.95zm0-3.58c0-.73-.08-1.36-.12-2.09l2.33-.41c0 .73.07 1.36.11 2.09zm1.48-9.3c1.28 0 2.27-1.41 3.52-.35l1.06-1.25.39.15c.23.89.45 1.79.73 2.89l-2 .11c-.36 1.09-1.76.68-2.83 1.2-.35-.93-.58-1.79-.91-2.79zm1.65 17.18l-.38-.16c.13-.65-.54-1.68 1.06-1.87-.31.81-.51 1.42-.72 2.03zm-.36-4.75c.37-3.3.07-2.72 1.16-2.76.34 2.35.22 2.68-1.16 2.76zm2.35 6.86a13.8 13.8 0 012-.45c-.17.43-.21 1-.43 1a7.53 7.53 0 01-1.74.22c0-.24-.03-.71.13-.77zm1.27 19.59l3.47 1.49-.12.31c-2.97-.61-2.97-.61-3.39-1.8zm.79 1.66l3.07 1.23-.09.19-3.18-.9zm3.32 3.11l-3.27-1.48c1.85-.27 2.8.24 3.23 1.48zm-2.76-.83c1 .61 1.81 1.07 2.58 1.54l-.16.29c-.7-.69-2.06-.11-2.46-1.83zm.69 1.74c.89.35 1.8.5 1.93 1.88-.83-.68-1.96-.54-1.97-1.88zm5.08 24.3c-.36-.86-.68-1.65-1-2.54 1.53.99 1.77 1.56.96 2.54zm.69-2.19c-.73-1.15-2.66-1.12-2.75-2.89l.32-.26 2.75 2.85zm.13-1.88c-.69-1.46-3-1.23-3.33-3.06l.31-.31 3.29 3.08zm-5.2-6.24a13.43 13.43 0 015.1 4.34c-1.38-1.77-4.15-1.79-5.14-4.34zm2.64-2.59l-1.87-.65c.93.94 2.49 1.25 2.64 2.7l-5.27-2.37-.2.42a10.43 10.43 0 016.22 4.21l-8.29-4.65 6.22-1.54c.11.43.31 1.11.55 1.88zm.19-42.07l-.45 1.83-.34-.1c-.5-1.29-.47-1.41.47-1.89a3.18 3.18 0 01.32.23zm5.34 19.63z" fill="#272727"/>
  <path d="M141.01 138.04c0-.21-.14-6 0-10.35a8.36 8.36 0 01-.39-1.51c0 1.72.07 10.14.14 11.86zm-13.22-15.92c12.48 1.37 17-.09-9.54-.27-8.24-.06-16.47.1-24.68.68a53.26 53.26 0 00-11.1 1.74 2.31 2.31 0 00-1.42 1 3 3 0 01-.74.78 2.09 2.09 0 00-.85 1.72c0 5.08-.17 10.17-.16 15.25 0 11.76.07 23.53.1 35.29 0 5.25.06 11.78.05 17a.89.89 0 00.68 1l2.08.82c0-.21 0-.43-.07-.65l-1.29-.52a1.13 1.13 0 01-.75-1.23v-46.77c0-6.23-.07-12.46-.11-18.68 0-.59-.06-1.17-.1-1.82l1.47.06a31.57 31.57 0 019.9 1.89c.26-.12.51-.24.77-.34l-2-.72-.43-.18s0-.07-.09-.18c.52 0 1 .07 1.49.12 1 .1 2 .17 3 .25.54-.16 1.07-.31 1.61-.44l-6.63-.53c-.55 0-.83-.21-.75-.75.05-.3 0-.62 0-.91s.26-.28.39-.42c.15.13.38.24.41.4a4.29 4.29 0 010 .95h.19c.11-.49.23-1 .35-1.46h.25v1.34h.23c.08-.19.13-.38.22-.56s.34-.56.51-.84l.66.54.55-.82c.13.37.19.56.27.83l.75-.95.46.78c.16-.25.3-.46.48-.72l.54.43c.29-.3.58-.41.76 0a2.11 2.11 0 01.74-.2c1.85.23 3.69.51 5.54.75.55.07.8.3.77.81v.34h.64a1.55 1.55 0 01.07-.23h.22v.23h.38c0-.44.26-.62.78-.52v.56h.32a1.58 1.58 0 010-.38 3 3 0 01.32-.64l.25.06v1h.36a6 6 0 000-.61c0-.54.22-.68.89-.6v1.22h.33v-.85c0-.5 0-.52.6-.64.08.46.16.92.23 1.38h.13c.14-.52.26-1 .43-1.56 0-.07.27-.09.46-.14.07.41.13.78.19 1.15h.19a4.91 4.91 0 01.32-.9c.07-.21.19-.54.36-.58.43-.11.41.24.44.5a2.54 2.54 0 00.13.45h.19a2.08 2.08 0 010-.66c.06-.17.22-.41.39-.45s.37.18.52.31a3.28 3.28 0 01.34.55l.07-1 .63-.05.21.83c.21-.36.35-.6.5-.84l.6.48c.42-.74.56-.76 1.11-.17l.72-.73c-2 .12-3.94.15-5.83.38-2.16.25-4.29.72-6.45 1a9.14 9.14 0 01-2.39-.08c-1.66-.22-3.32-.51-5-.77v-.17h5c4.4-.12 8.8-.16 13.18-.44 4.22-.28 8.37.39 12.55.42 2.84 0 5.67.16 8.5.38l-4.48.31c-.81.06-1.61.15-2.41.26a.57.57 0 00-.34.42v.84c.44 0 .89-.06 1.33-.09v-.14c0-.05.29-.25.44-.37l.17.09v.32h.29v-.27c0-.13.23-.24.35-.36.09.14.25.27.26.41v.19h.31v-.24c0-.45.17-.65.76-.56v.77h.36a2 2 0 000-.24c0-.49.17-.72.72-.68h.84l.07.89h.26a1.77 1.77 0 01.15-.38 6.5 6.5 0 01.44-.63c.11.21.23.43.33.65a.47.47 0 00.17.3 3.28 3.28 0 01.18-.61 3.63 3.63 0 01.33-.47c.16.14.33.27.48.42a1.11 1.11 0 01.12.27l.61-.65.42.6c.47-1 1.4 0 2.19-.43l-2.21-.41v-.14c2.32.27-6.55-.36-4.23-.09 0-.1 0-.2.07-.3a4.27 4.27 0 00-.61-.18c-4.37-.77 2.38-.13-2.07-.27-3.67-.11-7.34-.31-11-.5-4.47-.23-8.93 0-13.39.17-4.15.19-8.3.28-12.44.53-2.8.17-5.6.52-8.39.81-.8.08-1.57.26-1.38 1.23a4.7 4.7 0 01-1.22-.25 6.34 6.34 0 01-1.09-.88 11.32 11.32 0 011.74-.6c2.4-.43 4.81-.92 7.24-1.17a244 244 0 0126.49-1c7.26 0 3.35-.56 10.55.34 1.92.24 3.84.38 5.73.76h.12c.06-.16.11-.12.18-.28a59.39 59.39 0 00-5.83-1.09zm-40 3.21v1.72c-.75.06-.75 0-.78-1.2-.01-.54.28-.6.79-.52zm-1.58.19h.37c.06.39.14.78.17 1.17a.3.3 0 01-.22.24c-.13 0-.39-.08-.39-.12.01-.43.05-.86.08-1.29zm-1 .17c.15.07.39.1.42.2a3.87 3.87 0 01.13.77l-.14.14c-.15-.1-.41-.17-.44-.29a3.25 3.25 0 01.03-.82zm-3.2.6a9.18 9.18 0 011.49.77l-3-.18c.46-.96.63-1 1.51-.59zm64.26 17.95c.06-1.88.08-6 .14-7.85h-.45l.06 9.12h.25c0-.44-.01-.86 0-1.27z" fill="#272727"/>
  <path d="M148.01 160.71c-1 0-1.28-.24-1.28-1m2.26 1.54c-.81-.1-.74-.51-.74-.85m2.3.61a6.46 6.46 0 01-.14 1.87 6.33 6.33 0 01-1.16 1.81c-.63-.84.1-1.38.57-2.13l-.69.45m3.53 2.72q-.15 15.54-.32 31.07a.75.75 0 01-.53.84l-7.4 2.66a1.36 1.36 0 01-.21 0c-.27-.8-.26-.81.81-1.79l-.83-.42c.29-.2.58-.4.88-.59.15-.1.31-.18.47-.27l-.06-.14h-.58l-.58.06c-.27-.9.88-.63 1.19-1.17l-1.27-.16 1.49-.81-1.12-.13-.07-.18 1.63-.6v-.17a6.26 6.26 0 01-.75 0 5.94 5.94 0 01-.7-.17 2.64 2.64 0 01.57-.44c.44-.17.9-.29 1.36-.44l-.06-.21-1.69.08c-.14-.48.14-.69.56-.81s.92-.23 1.37-.36a6.32 6.32 0 00.65-.27l-.06-.19-2.45.32-.09-.18c.57-.81 2-.58 2.56-1.46l-2.57.48-.08-.18c.51-.72 1.8-.49 2.44-1.37l-2.13.39-.17-.15c.17-.17.3-.42.52-.49.85-.29 1.73-.53 2.59-.79v-.23a4.41 4.41 0 00-.81 0c-.52.08-1 .23-1.53.31a2.9 2.9 0 01-.71 0c.19-.17.35-.41.58-.5.58-.22 1.21-.37 1.81-.56a4 4 0 00.46-.24l-.06-.16c-.72.14-1.45.28-2.16.44-.94.21-1.25.07-1.3-.75s0-1.8 0-2.81c.7.8 1.29 1.5 1.92 2.18.48.53.64.48 1.28.09 2.93-1.76 3.51-4.33 3.52-7.15 0-4 .11-8.06.18-12.08m-6.87-7.27a5.91 5.91 0 01-.11.81c-.84-.17-1.62-.32-2.39-.52-.13 0-.24-.32-.24-.48.06-2.22.16-4.43.22-6.65a19.77 19.77 0 00-.13-3.07c-.39.76.3 2-1.5 2 0-.53-.36-1.14.43-1.44l-.57-.54c.1.43-.3.64-.84.82-.8.26-1.58.58-2.41.89l-.16-.42h-.1c0 .28 0 .55-.07.87l1.6-.7c.46 1.33.13 1.73-1.31 2.09 0-.24-.09-.47-.13-.7a2 2 0 01-1.19 1.67l.86-.26v1.15c0 .64.3.79 1 .55l.58-.2c.46 1.37.19 1.89-1.15 2.18 0-.25 0-.49-.05-.72a5.31 5.31 0 00-.19-.65h-.25v2.68h-1.83c.35.7 1.13.47 1.45.59.08.52.16.92.2 1.33v.77a4.07 4.07 0 01.06.6.8.8 0 01-.19.51c-.16.18-.42.29-.57.55l.65-.1c.38.78.31 1-.68 2.09l.73-.2v1.78c-.39-.23-.91-.38-.95-.59a3.72 3.72 0 00-1.52-2c-1.9-1.7-3.86-3.35-5.75-5.07a9.45 9.45 0 01-1.18-1.71l-.21.7-1-.49.9-.62-1.17.17a5.78 5.78 0 000-1.11c-.07-.31-.2-.77-.45-.86s-.74.13-1.12.22l.08.25 1-.26a2.19 2.19 0 01-.76 2.64h.73l-1 1.45c-.1-.55-.18-1-.28-1.48l-1.2.74c-.34-.94 0-1.18 1.65-1.15l-.6-1.95-1 .47-.26-.79c-.21.7-.23 1.36-1 1.66-.25-1.43.21-2.08 2.11-2.87l.15 1h.18c0-.58.11-1.16.17-1.84l-2.41 1.62c-.36-.89-.2-1.17.62-1.59 1.07-.55 2.08-1.17 3.12-1.77l-.16-.22-2.68 1.44v-1.21c0-.59.07-1.18 0-1.77s.28-1 1-1.34c.11.72.2 1.37.29 2h.15c0-.19 0-.38.07-.57.09-.72.25-1.43.27-2.14s-.15-1.31-.19-2 .34-1 1.11-1.31c-.14 1 .72 2-.68 2.82h.76c.14.41.27.81.4 1.21h.14v-4.06c0-.49.56-.79 1.24-.6l-.32-2.29-1 .33v-3.76a1.43 1.43 0 01.89-1.4c0 .42.14.82 0 1.09-.33.54 0 .77.41 1l.5-1.2a.87.87 0 01-.36-1.27c.15-.23.83-.2 1.4-.31l.28-.64h.17c.07.56.14 1.11.2 1.66.71-1.07.43-2-.54-2.11-.13-.45-.28-.9.3-1.29l.41.92h.22a9.1 9.1 0 01.1-1c.07-.3-.18-.79.72-.8v2.9h.29v-2.34c0-.42.12-.77.69-.79.1 1.44.19 2.86.31 4.28 0 .13.25.25.53.34v-.57c-.08-1.18-.18-2.36-.23-3.54 0-.18.15-.52.28-.54.52-.07.37.31.38.54.06.79.09 1.57.13 2.35h.26v-2.61a.64.64 0 01.4-.49c.36-.11.63 0 .61.43v2.64h.23v-3.06c1-.16 1-.14 1 .59v1.16a1.74 1.74 0 00.23.16c0-.48 0-.89.09-1.29s-.21-.78.42-.82.43.46.5.75.08.55.12.82h.21a6.72 6.72 0 010-1.1c0-.17.23-.31.36-.47a2.13 2.13 0 01.4.46c.06.16 0 .36.17.56l.21-1h.7c0 .29.07.55.11.8h.09c.08-.25.15-.5.25-.8h1.66v-.61h-1.74a45.43 45.43 0 00-17.2 2.83 1.33 1.33 0 01-.83-.08 29.92 29.92 0 00-18.28-1.78c-1 .19-1.92.61-2.9.87a1.68 1.68 0 01-1.07 0 36.41 36.41 0 00-7.2-3 4.22 4.22 0 01-.45-.18s0-.06-.09-.17c.55 0 1.06.06 1.57.11 8.21.79 16.46 1 24.72 1.07a221.75 221.75 0 0023.63-.79c.05-.2.1-.4.16-.6-2.14.18-4.27.32-6.41.48-.52.05-.77-.07-.72-.54s.06-1 .15-1.52c0-.14.24-.25.36-.37.1.14.27.27.28.41v1.63h.27c0-.57.06-1.13.05-1.7s.18-.65.81-.56v1.6h.24a6 6 0 00.18-1.09c0-.5.18-.72.76-.69h.89c0 .38.06.73.1 1.09h.16a4.54 4.54 0 01.24-.61 6.86 6.86 0 01.47-.63c.12.22.24.43.35.65s0 .19.18.3a4.18 4.18 0 01.19-.6c.09-.17-.88-.3-.76-.46.17.14.35.28.5.43a.79.79 0 01.13.26c.23-.23 1.56-.46 1.76-.67.15.21-.81.43-.67.62a1 1 0 01.19-.27 5.46 5.46 0 01.27-.48l-.49-.09v-.14l.57.06c.09-.14-.92-.26-.82-.4-2.69-.24-3.16-.44-5.87-.52-3.88-.11-7.77-.31-11.65-.49-4.73-.23-9.45 0-14.17.16-4.38.2-8.78.29-13.16.54-3 .16-5.92.52-8.88.81-.84.08-1.66.25-1.46 1.23a5.58 5.58 0 01-1.28-.25 6.43 6.43 0 01-1.16-.88 14.05 14.05 0 011.84-.61c2.55-.42 5.09-.91 7.66-1.16a273.11 273.11 0 0128-1 150 150 0 0119.64 1.31h.16a5.21 5.21 0 01.63-.48l-.68-.09a162.39 162.39 0 00-18.58-1.25c-8.71-.05-17.42.11-26.11.69a59.41 59.41 0 00-11.75 1.74 2.42 2.42 0 00-1.49 1 3.44 3.44 0 01-.79.78 2.09 2.09 0 00-.9 1.72c0 5.08-.17 10.17-.17 15.25 0 11.76.07 23.52.11 35.28v15.75a.88.88 0 00.71 1c4.49 1.66 9 3.36 13.44 5a17.33 17.33 0 003.88 1.17c6.26.72 12.54 1.32 18.83 1.92a15.87 15.87 0 004.52.08c5.8-1 11.63-1.87 17.44-2.8a39.17 39.17 0 004.9-.86c2.43-.71 4.79-1.61 7.15-2.5 2.15-.8 2.11-.3 2.15-2.75.09-4.46.07-8.92.12-13.37.06-6.45.15-12.9.23-19.35h.14m-7.07-2.9c-1.45-.06-1.65-.25-1.62-1.33m1.48 23.44c.65-.19 1.27-.43 1.91-.65a1.67 1.67 0 01.31 0 5 5 0 01-2.6 1.74c-.41-.49-.29-.84.37-1.01zm.66 2.41c-.08 0-.54-.28-.82-.43l.12-.24 2.35-1 .15.13c-.6.62-1.17 1.15-1.81 1.62zm-1.23-2.91l-.19-.1c.09-.16.12-.4.27-.47 1-.43 1.92-.83 3-1.27a7 7 0 01-3.09 1.92zm0-1.2c-.4-.75-.24-1.16.58-1.53.55-.24 1.1-.49 1.62-.77s1-.57 1.59-1a8.47 8.47 0 01-3.78 3.38zm4.47-14.26l.15.08-1.17 1.55-.24-.14zm-.76 4.11l-1 1.23c-.04-.53-.04-.53 1.01-1.13zm-.87-6.37l.4.06-.3 1.41-.38-.06zm.9 9.77a10.35 10.35 0 01-3.66 3.39 2 2 0 001.75-.37l1.62-1a7.43 7.43 0 01-3.61 2.61c.06-.84.11-1.66.21-2.48 0-.15.22-.31.38-.4 1.11-.51 2.22-1.05 3.35-1.67zm-3.62 1c.08-.6.15-1.21.22-1.81h.06v1.82zm1-10.54c0-.1.11-.19.1-.28-.1-.76-.11-.76.59-1.32l-.66-.13c0-.71.07-.8.83-1a6.14 6.14 0 01.27.79.68.68 0 01-.08.44 3.52 3.52 0 01-.36.5c.77.5.55 1-.81 1.68.04-.16.07-.38.11-.6zm1.07.59a1.21 1.21 0 01-1.15 1.81c-.26-.64.09-1.24 1.14-1.73zm.15 3.69c0 .82-.72 1.1-1.27 1.56-.15-.6.27-1.17 1.26-1.48zm-.19 1.57l.18.16-1.22 1-.16-.14c.09-.53.83-.56 1.19-.94zm.2 1.32c.1.9-.77 1.2-1.33 1.71-.54-.64.2-1.45 1.32-1.64zm-.1 1.85a1.61 1.61 0 01-1.52 1.2c.19-.68 1.05-.68 1.51-1.12zm-3.12-12.75l.63.13-.23.51.67-.08c.62.56.59 1.07-.42 1.57.92 0 .83.31.81.7-.06 1.07-.06 2.14-.07 3.21 0 .34 0 .75-.45.76-.26 0-.53-.35-.78-.55a.32.32 0 01-.1-.22c-.09-1.66-.18-3.32-.23-5a6.17 6.17 0 01.16-.95zm-21.75-5c.21.83.14.9-.79.85-.17-.42.35-.5.78-.72zm4.4-22.58c.17.49.15.52-.54.64-.08-.47-.08-.47.54-.64zm0 1c.34.76.2 1.14-.52 1.39-.35-.77-.22-1.12.52-1.43zm-1.49-.42l.29.11-.45.83c-.44-.54-.35-.84.2-.97zm.16 1.19c0 .54.29 1.08-.5 1.46-.34-.84-.24-1.14.54-1.5zm-.1 6.75a9.22 9.22 0 010 1.31c0 .11-.3.19-.46.28-.09-.13-.23-.25-.25-.38-.07-.5-.02-.92.75-1.25zm-2.17 2.48c-.32-.87-.1-1.33.8-1.56.32.94.12 1.31-.76 1.52zm.87-9.86c.29.81.15 1.07-.66 1.23-.26-.82-.12-1.12.7-1.27zm-.06 1.32c.47.81.13 1.59-.72 1.65-.19-.98 0-1.43.76-1.69zm0 1.8c.4.86.16 1.34-.69 1.45-.28-.87-.09-1.29.74-1.49zm-.13 1.67a1.21 1.21 0 01-.61 1.86c-.23-1.05-.04-1.59.66-1.9zm.11 2c.29.82.24.9-.74 1.39-.45-.64-.23-.99.79-1.41zm-1.55-6l.24.08c.18.46.1.84-.71 1 .2-.41.36-.76.52-1.11zm.16 1.45c0 .54.17 1.06-.49 1.5-.4-1-.31-1.33.54-1.53zm-.17 1.77c.37.9.27 1.2-.55 1.47-.2-.78-.08-1.19.6-1.5zm0 1.69c.32 1.14.16 1.61-.59 1.75-.18-.9.02-1.49.66-1.78zm-.09 2c.28.83.15 1.14-.57 1.37-.23-.66-.07-1.1.64-1.39zm0 1.53c.2 1.06 0 1.42-.77 1.55-.08-.91.1-1.29.89-1.57zm-.81 2.38c0-.24.38-.46.59-.69l.21.13c.21 2.09.21 2.67-.83 2.84a21.68 21.68 0 01.15-2.3zm-1.17 7.09c.14-1.34-.24-2.61.34-3.81.67.71.46 3.45-.22 3.79zm.76-14c.32.72.18 1.16-.41 1.49-.21-.89-.14-1.2.53-1.51zm-.09 1.81c.34.77.21 1.42-.4 1.75-.11-1.18-.05-1.45.52-1.77zm.09 2c-.06.39-.11.78-.16 1.18h-.22c-.07-.41-.22-.83.13-1.18zm-.16 1.49c.26 1 .18 1.24-.49 1.51a1.14 1.14 0 01.61-1.51zm-.07 1.64c.37.85.1 2.79-.56 3.22.3-1.13-.25-2.21.68-3.22zm19.95 14.08c.82.2 1.59.37 2.35.59a.53.53 0 01.26.42c0 2.23-.05 4.46-.07 6.69a.74.74 0 01-.66.76l-2.14.6a1.45 1.45 0 01.81-1.89 1.92 1.92 0 001.11-1.66c.06-.95 0-1.89 0-3l-1.73 1-.09-.08 1.31-1.24-.11-.14-1.2.54c.18-.9.22-1.68.28-2.59zm-.83 12.11c-.34-.1-.55-.15-.76-.23s-.35-.12-.35-.19a.4.4 0 01.21-.35 8.15 8.15 0 011.06-.3c.05.43.01.73-.04 1.07zm-1 1.82c-.27-.78-.08-1 1-1.09.33.99.23 1.1-.87 1.09zm-.05-4.7a.61.61 0 01.09-.38c0-.07.13-.12.2-.16l.81-.48c.24.82 0 1.19-.74 1.14 0-.01-.21-.06-.23-.12zm0-3.7l1.16-1 .16.13c-.23 1.03-.23 1.03-1.19.87zm1.3-2.94c0 .45-.14.59-1.15 1.16.01-.77.18-.93 1.28-1.16zm-1.11-.08a4.71 4.71 0 01-.06-1.28c.06-.24.42-.43.67-.66l-.54-.25v-.21l1-.11v1c.58.69.2 1.25-.94 1.51zm1.23-4.81v1.61l-1.1-.12c-.15-1.15-.01-1.35 1.23-1.5zm-1.05-.14c-.5-1-.12-1.72 1.09-2.06.32 2 .19 1.84-.96 2.06zm1.19 6.9l1.44-1.17c-.1.71-.67 1-1.27 1.32zm.06-13.13c.21 1.76 0 2.08-1.16 2.19-.12-1.71.04-2.05 1.29-2.19zm-.08 2.28c.3 1.33.17 1.55-1.22 2-.08-1.48.1-1.77 1.35-2zm-1.48-3.37c.34 1-.19 1.68-1.29 1.73-.27-1.17 0-1.53 1.42-1.73zm0 1.75c.26 1.58 0 2-1.38 2.36-.29-1.37.06-2.01 1.47-2.36zm-.16 2.35c.21 1.43 0 1.7-1.17 2.08-.47-1.14-.08-1.85 1.26-2.08zm-1.21 16.63c-.15-.78.43-.65.77-.76l.18.21zm.87.65c.11.61-.43.52-.77.65-.1-.58-.07-.58.86-.65zm-1-2.22c-.06-.56.49-.51.94-.64.19.52.12.86-.51.88-.02.05-.3-.14-.31-.24zm0-3.55c-.11-.82.5-.83.91-1l.17.15zm.15-1l-.32-.13c.1-.35.21-.7.32-1.09l.89-.06.22.19zm.37 11c-.61.12-1.22.21-1.84.31l-.09-.24 2.36-1c.47.63.38.83-.29.97zm-.59-14.77a7.7 7.7 0 011-.5l.17.13c-.05.61-.11 1.21-.17 2l-.88.57-.09-.09.44-.41c-.73-.39-.74-.48-.21-1 .09-.29-.17-.62-.12-.66zm.19-3c-.44-1-.1-1.56 1.09-1.79.36 1.34.19 1.61-.93 1.84zm1 0v.92l-1.14-.21-.05-.15zm-1.11 1.2l1.11.41c-.19.15-.36.4-.57.43-.56.08-.6-.32-.68-.64zm-1.51-4.24c-.47-1.53-.2-2.05 1.26-2.37.33 1.78.17 2.08-1.15 2.45zm1.33 18.5l.1.14a1.37 1.37 0 01.41-.25 4.72 4.72 0 01.76 0c-.08.25-.08.66-.23.71a14.6 14.6 0 01-2 .41.42.42 0 01-.33-.23.45.45 0 01.18-.4 10.37 10.37 0 011.22-.3zm-1.36-.81c0-.23 0-.56.19-.65a3.27 3.27 0 011-.23c0 .18.12.46 0 .53a5.15 5.15 0 01-1 .45zm.21-1.52c-.1 0-.24-.15-.24-.24s.08-.32.18-.35c.34-.09.7-.12 1.09-.19a.89.89 0 01-.92.86zm0-6.53l.88-.33c0 .68-.3 1-1.13 1.08-.37-.89 0-1.46 1.09-1.51l-.86.7zm.84.72c.06.81-.27 1-1.21.69zm-.07 3.86c.06 0 .26.1.25.13s-.1.3-.2.33c-.3.08-.63.11-.94.16l-.12-.24c.43-.05.76-.19 1.11-.3zm.19-6.94a8.15 8.15 0 01-.26 1.11.7.7 0 01-.55.23.78.78 0 01-.52-.42c0-.17.17-.38.29-.63-.48-.18-.44-.58-.31-.91s.6-.63 1.25-.64l-.48.54c.81.03.77.4.68.8zm-.83-2a1.91 1.91 0 00.52-.25c.26.64 0 .89-1 1.09-.05-.36-.05-.69.58-.8zm-.29-2.66a4.82 4.82 0 011.07-.75 5.21 5.21 0 010 1.15.89.89 0 01-.46.53.75.75 0 01-.64-.16.9.9 0 01.13-.74zm.13 1.6c.23-.09.59.09.9.15-.08.21-.16.43-.23.64l-1.13-.08c.27-.23.34-.59.56-.67zm-.81 13.81a7.39 7.39 0 01-1.42.23c-.05-.3-.09-.51-.13-.73a11.26 11.26 0 011.26-.29 2 2 0 01.67.2c-.02.21-.09.57-.28.63zm.31 1c0 .7-.2.82-1.76.91.12-.69.62-.96 1.89-.87zm-.05-3.1c-.12.14-.2.37-.35.42a14.73 14.73 0 01-1.45.27l-.44-.39c.16-.1.3-.27.49-.31a7.39 7.39 0 011.25-.19c.26.03.43.17.6.24zm-12.41-11.26c.55.28.71.7.51 1.13-.13.27-.5.45-.76.68l-.3-.17c.65-.43-.2-1.18.65-1.6zm-.31 2.3a3 3 0 01.71-.49c.15.24.24.38.34.52s.16.22.33.45c0-.47.07-.8.11-1.21l1.2.19 1 .16c-.21-.59-.42-1.15-.62-1.71-.43.22 0 1-1 1 .07-.32.14-.6.2-.87h-.1l-.57.71h-.22a3 3 0 000-2.62h.22l1.36 1.09c.25.11.69 0 .57.44a4 4 0 01.79.34c1.45 1.17 2.88 2.36 4.32 3.53.35.28.71.55 1.08.8s.51.66.08 1l-.19.18c-.67.62-.67.62.19 1.16l.27-.46.09.31h.06l.3-.59h.2c0 .38.08.77.13 1.16s.12.92.2 1.48l-1.89-1.24-.25.45h-.17v-1.27l-1.49.83c-.07.12.18.65-.54.6h-1.26l-.11.16c.29.3.56.61.86.91s.72.28.56.72c.2 0 .46.09.59 0 .47-.26.9-.57 1.35-.87l.15.12-.66.76.12.12c.42-.23.82-.49 1.26-.69s.79-.45.83.33l1.55-.68.07.07-.9.56.55.61a6.31 6.31 0 01-1 .38 21.13 21.13 0 01-2.26.28c-.42 0-.58.17-.56.5a4 4 0 00-2.61-.24 11.22 11.22 0 00-1.24.63l-.94-.89a1.45 1.45 0 01-1.7.67 7.21 7.21 0 00-1.14 0c-.17 0-.46-.1-.47-.17s0-.51.14-.55c.7-.24.72-.64.51-1.16 0-.07.06-.17.17-.43l.37.77c.17.3.89-.37.74.43l.59-.38-.31-.89.77-.14c-.05.31-.08.51-.12.77.66.06.84-.31 1-.75h1l-.11.55c.17 0 .34 0 .37-.08.12-.21.35-.48.28-.64a1.66 1.66 0 00-2-.81l-.61.12a1.32 1.32 0 00.38-2c-.27.53-.55.93-1.34.72.14-.21.28-.39.4-.57a.7.7 0 00.12-.56l-.68.25.68-.78-.64-.11c-.14-.77-.14-.77.89-1.64-.41-.59-.66-.05-1 .11l-.1-.16a5 5 0 00-.92.34c-.48.31-1.79 0-1.82-.48 0-.27.37-.56.63-.92l.46.74a3 3 0 01.5-.93zm8.36 5.87c-.09.22-.2.44-.3.65-.09-.09-.23-.17-.28-.29-.13-.35 0-.44.56-.64a1 1 0 01.12.32zm1.51 6.62c-.25.65-.77.7-1.39.65.21-.86.36-.93 1.49-.61zm-2-3.35c.46.11 1 .12 1.18.67a1.18 1.18 0 01-1.04-.63zm1.26 1.76a.65.65 0 01.34-.26s.22.14.26.23c.11.28.19.57.33 1-.49-.19-1.02-.35-.79-.93zm-3.32 0a4.18 4.18 0 01-3.3 1 3.29 3.29 0 012.41-.95 2.69 2.69 0 01.09-1c.37-.74 1.05-.87 1.88-.53-.18.8-.18.8-1.46.71zm-3 2.26l2.15-.74c-.14.78-.69.97-1.97.76zm1.08 1.16c0 .36-.07.73-.1 1.09l-.21.08c-.1-.18-.31-.36-.3-.53a2.62 2.62 0 01.28-.73zm-.66 15.87a2.44 2.44 0 01-.18-1c0-.17.42-.36.7-.42s.6.08.57.46 0 1.05-.09 1.57c0 .2-.2.5-.35.53s-.8 0-.88-.14 0-.54.13-.81c0-.09.21-.15.32-.22zm-.19-2.38c-.16-.09-.1-.65.08-.88s.67-.12 1 0c.55.2.36.63.27 1.14a4.14 4.14 0 01-1.17-.24zm-.24-3.48a4.37 4.37 0 01-.93-.2c-.09 0-.09-.46 0-.54a.9.9 0 01.7-.09c.2.15.25.44.37.67zm-.07 1.72c-1.07.13-1.21 0-1-.89 1.17-.13 1.25-.06 1.17.91zm0 .88c.26 1.08.08 1.28-1.06 1.18-.14-1.08.11-1.36 1.23-1.16zm-.68 2c.33-.07.71 0 .71.43s-.17.73-1.2.74c.28-.42-.14-.97.66-1.13zm.55 1.58c.23.85.09.95-1.12.77.24-.73.42-.83 1.29-.73zm.08 1.82c-.32.16-.68.27-1 .4l-.2-.15c.08-.22.08-.55.25-.64a1.88 1.88 0 01.89 0s.28.4.28.43zm-1.78-9.65c-.48-.05-.61-.39-.44-1.24.95 0 1.17.09 1.17.64.02.37-.15.6-.73.6zm-.57 8.71c-.09-.43.06-.71.55-.65.19 0 .32.34.6.65zm.86 1c0 .15-.21.31-.45.61-.23-.3-.45-.46-.41-.57a.6.6 0 01.44-.37c.13-.09.45.14.45.26zm0-3.23c.34.9.21 1.11-.77 1.1v-1.09zm-.51-2.26l.22-.22c.21.08.52.12.59.26s0 .41 0 .62h-.22zm.66-.71c-.28-.09-.74-.13-.8-.29a1.35 1.35 0 01.13-.84h.56a4.4 4.4 0 01.31 1zm-.44-1.9c-.71-.15-.25-.6-.34-1 .63 0 1.06.06 1 .66-.03.36-.38.32-.66.27zm.64-3.64c-1.05.45-1.36-.2-1.19-1.1 1.24-.07 1.38.06 1.2 1.03zm-.83 12.54l.66.6-.18.18h-1l-.15-.16zm0 2.09a.69.69 0 01-.51-.33c-.1-.31.15-.46.49-.4a2.56 2.56 0 01.57.24v.24c-.13.02-.36.19-.5.18zm.46.9c0 .18-.29.34-.6.67-.24-.33-.51-.55-.46-.66a.92.92 0 01.59-.42c.2-.09.54.2.52.34zm-3.1-4.57l-.52-.35a1.4 1.4 0 01.49-.27c.15 0 .32.14.48.22zm.47.85c-.18.11-.36.3-.55.31s-.43-.2-.43-.32.23-.3.47-.58zm-.44.89a2 2 0 01.5.53l-.33.25-.73-.49c.24-.18.53-.41.61-.36zm.1 1.06l.22.18v.74l-.17.14-.73-.51zm.32 1.73c-.15.19-.3.38-.46.56l-.42-.44.58-.37zm-.46 1.84c-.12 0-.28-.18-.41-.28.13-.12.24-.3.4-.35s.31.1.65.23c-.27.1-.42.3-.59.33zm.49.89l-.76.51c-.27-.48-.31-.81.21-.82.23-.08.42.12.6.24zm.06-18.52h-.24l-.18-1.16h.28c.5.26.18.7.19 1.09zm-.65-2.08l.5-.82h.2l.37.79zm1.94-14.35c-.25-.86.09-1.36 1-1.52zm1.29-1c0 .19.22.42.15.55-.39.66-.84 1.29-1.27 1.93l-.2-.08c.25-.5-.15-1.24.84-1.47.07 0 .08-.23.1-.35s0-.37.07-.55zm-1.31 3.26a15.16 15.16 0 011.06-1.44c.81.81-.1 1.06-.48 1.37V169c-.7-.27-.84-.63-.63-1.01zm-.45 1.82l.14.15-.73.7a1.76 1.76 0 01-.2-.2c.2-.19.47-.4.74-.62zm.08-2.78c.26.32.32.53-.12.84s-.45.67-.73 1.11a2 2 0 01.8-1.92zm1.51 4.85v.18l-2.25.12c.29-.4 1.26-.47 2.2-.27zm-2.36-5.78c-.3-.93 0-1.51 1.08-1.87zm.78.31l-.78 1.35c-.35-.8-.16-1.12.73-1.27zm.28 10.89c.46.13.51.48.13.73-.54.35-1.11.68-1.75 1.07v-2.11c.57.13 1.09.2 1.57.34zm-.46 5.68c.79 0 .9.13.77.84 0 .15-.38.39-.45.36-.77-.25-.23-.76-.37-1.17zm.55 3l-.65-1.11c.91.04 1.03.26.6 1.12zm-.39 9.1c.18 0 .34.2.51.31l-.49.52c-.23-.26-.45-.4-.45-.54s.24-.3.38-.28zm-.47-.92c.17-.12.34-.3.53-.32s.43.18.44.29-.2.29-.43.6zm.52-1c-.16 0-.34-.16-.51-.25l.49-.48.51.44c-.21.13-.37.31-.54.31zm0 3.12c.15 0 .35.15.53.24v.27c-.21.09-.43.26-.62.24s-.31-.25-.46-.39c.15-.15.32-.31.53-.34zm.07 1.33c.09 0 .29.2.57.4-.29.19-.48.42-.63.4s-.37-.25-.55-.39a2.72 2.72 0 01.59-.39zm0-5.53a1.06 1.06 0 01-.56-.29 7.54 7.54 0 01.54-.89l.77.83c-.39.19-.57.37-.76.37zm0-9.69c-.54 0-.38-.42-.4-.7s-.1-.63.38-.55c.24 0 .41.36.73.68-.3.28-.49.59-.69.59zm-.07-5.77c-.18 0-.32-.21-.49-.33l.51-.19a22 22 0 002.13-.68c.61-.26.86-.26 1.21.26a4 4 0 01-3.34.96zm1.82-8.87l1.18-.7c0 .63-.39.91-1 .9zm-1.75-9.5c-.12.72.19 1.53-1 1.78-.46-.71-.11-1.45 1.02-1.76zm-.08 1.78c.24 1.49.1 1.77-1 2.09-.32-1.2-.12-1.63 1.02-2.07zm-2 4.86a1.41 1.41 0 01.35-1.83 1.36 1.36 0 01-.28 1.85zm.58.16l-.46 1.14c-.2-.45-.28-.86.53-1.12zm-.46 2.11h.32a9 9 0 01.31 1.68c0 .31-.34.61-.52.92l-.28-.1c.07-.81-.23-1.67.24-2.48zm.29-9.53c.33.64.24.93-.44 1.25-.15-.53-.17-.97.47-1.23zm0 1.54a5.77 5.77 0 01-.35 3.67c-.37-.89-.17-3.3.38-3.65zm.38 10.59a4.06 4.06 0 010 1c0 .16-.35.28-.54.41-.14-.16-.41-.33-.41-.49.06-.39.29-.75.97-.9zm-1.14 19h.13c.07.16.13.32.2.47.31.65.66 1.28.93 1.93a1.3 1.3 0 01.1.88 1 1 0 01-.81.15 1 1 0 01-.52-.67c-.04-.97-.01-1.88-.01-2.79zm-16-59.34c.08-.37.22-.73.33-1.1h.24l.27 1.62c-.75.09-.93-.02-.81-.55zm1.83.52c-.55.17-.78 0-.79-.42s0-.69 0-1 .27-.62.82-.53zm25.34 0l.41-1.18c.35.79.21 1.13-.38 1.1zm1.62-.45c0 .12-.26.22-.4.33-.12-.12-.34-.25-.34-.38a7.57 7.57 0 01.11-1.51c0-.15.31-.26.47-.38l.18.09c-.02.62-.02 1.23-.02 1.85zm-35.89-3.5h5.28c4.65-.12 9.31-.16 14-.45 4.46-.28 8.85.39 13.28.43q4.5 0 9 .38c-1.58.1-3.17.19-4.75.31-.85.06-1.7.14-2.54.26a.56.56 0 00-.36.41 17.87 17.87 0 000 2.07c0 .41-.12.59-.62.59-2.53 0-5.06.13-7.59.14h-15.1c-1.24 0-1.24 0-1.2-1.1a5.4 5.4 0 01.08-.91 2.47 2.47 0 01.34-.64l.25.05v2.06h.26a12.36 12.36 0 00.16-1.71c0-.54.23-.69.94-.6v2h.32c0-.54.05-1.08.06-1.63s0-.51.64-.64c.08.47.17.93.25 1.39h.13c.15-.52.28-1.05.46-1.57 0-.07.28-.08.49-.13.07.41.13.78.19 1.15h.2a3.86 3.86 0 01.1-.76c.07-.22.2-.55.38-.59.46-.1.43.24.46.51a2.25 2.25 0 00.14.44h.21a2.08 2.08 0 010-.66c.06-.18.24-.42.42-.45s.39.17.54.31a2.56 2.56 0 01.36.55l.08-1h.66l.23.83.52-.85.64.49c.45-.74.6-.77 1.18-.18l.76-.72c-2.15.12-4.17.15-6.17.37-2.28.26-4.54.73-6.82 1a9.77 9.77 0 01-2.53-.09c-1.76-.22-3.51-.51-5.26-.77zm-8.15 1.28c0-.16.26-.29.41-.43.15.14.4.25.43.4a5 5 0 010 .95h.19c.12-.49.25-1 .37-1.47h.27v1.34h.24c.08-.18.14-.37.24-.55s.35-.56.53-.84l.7.54.59-.82c.12.37.19.56.28.82l.79-.94c.2.33.32.52.49.78l.5-.72.58.42c.3-.29.62-.4.8 0a2.69 2.69 0 01.78-.21c2 .24 3.91.52 5.87.76.58.07.84.3.81.81a10.93 10.93 0 000 1.28c0 .38-.19.49-.61.46l-13.54-1c-.58 0-.88-.2-.78-.74.04-.23-.05-.55.02-.84zm-.49-.37v1.73c-.79.06-.79 0-.83-1.2-.06-.54.24-.61.79-.53zm-1.68.2h.39c.07.39.15.78.19 1.17a.35.35 0 01-.23.24c-.14 0-.42-.08-.42-.12-.04-.43 0-.9.03-1.29zm-1.06.17c.15.06.4.1.44.2a3.27 3.27 0 01.14.77l-.15.14c-.16-.1-.44-.17-.46-.29a2.85 2.85 0 01-.01-.82zm-3.39.6a9.19 9.19 0 011.58.77l-3.27-.15c.54-1 .72-1 1.65-.62zm14.76 62c-.13 1.3 0 2.61 0 3.91s-.05 2.6-.09 3.9-.11 2.53-.17 3.79c0 .17 0 .35-.07.61-.53-.18-1-.33-1.43-.5l-14.34-5.37a1.11 1.11 0 01-.79-1.23v-45.49c0-6.23-.07-12.46-.11-18.68 0-.59-.07-1.17-.11-1.82l1.55.06a34.46 34.46 0 0115.89 4.29.9.9 0 01.56.9q-.24 10-.46 20c0 1.14-.09 2.28-.08 3.42 0 .51-.22.7-.8.78-2 .27-4.1.57-6.14.87-.23 0-.45.09-.71.15.4.75 1.27.6 1.84.61a6.44 6.44 0 002-.74l-.79.6c1.15-.25 2.44.14 3.43-.61a.53.53 0 01.41-.06l-2.68 1.69a6.85 6.85 0 01-.83.58 6.14 6.14 0 01-1.39.53c-1 .19-2.06.29-3.08.46-.21 0-.36.26-.54.4.23.09.47.28.69.26.66-.06 1.31-.2 2.14-.34a8.44 8.44 0 01-.38 1.25.62.62 0 01-.51.2c-.72-.17-1.44-.39-2.16-.58a.62.62 0 00-.27 0c-.79.22-.91.15-.92-.55a1.68 1.68 0 000-.55c-.08-.21-.22-.53-.39-.56a2.72 2.72 0 00-.9.16l.07.22.83-.14a4.06 4.06 0 010 1.4c-.07.21-.6.32-.94.43a1.47 1.47 0 01-.32-.48 1 1 0 010-.39l-.83.86-.16-.08c-.05-.65-.11-1.28-.13-1.93a.55.55 0 01.31-.42 1.12 1.12 0 01.55.14 1.31 1.31 0 00.51.19c0-.41 0-.83-.07-1.33l-1 .33c-.09-.3-.16-.56-.23-.81-.35.4.18 1.23-.86 1.29l-.4.52-.24-.06a16.7 16.7 0 01-.28-1.84c-.17-3.89-.4-7.77-.44-11.65 0-2.87.23-5.74.25-8.6 0-2.54-.12-5.09-.19-7.63a1.12 1.12 0 00-.06-.48c0-.11-.23-.26-.33-.25a.75.75 0 00-.39.27c-.06.07 0 .2 0 .3 0 6.47.08 12.94.17 19.41 0 2.64.19 5.28.29 7.92 0 1.44.11 2.88.13 4.32 0 4.35 0 8.7.12 13a26.37 26.37 0 00.49 4.23 5.43 5.43 0 002.46 3.2 5.43 5.43 0 01.63.64.65.65 0 00.17.16 6.59 6.59 0 011 .56c.75-.07 1.19.23 1.67 1.3l.13-.5.2-.11.87.85a2.41 2.41 0 01.76-.1c.71.16 1.41.37 2.11.57a3.36 3.36 0 002.9-.45c.61-.41 1.2-.83 1.83-1.27.06.11.13.17.11.21-.46 1.3.04 2.56-.1 3.82zm4.67-15.38c.18.68.34 1.36.51 2l-.2.1-1.63-.86a3.75 3.75 0 00.48-.07 1.73 1.73 0 00.47-.18c-.05-.19-.14-.52-.27-.54-.95-.15-.69-.7-.66-1.2.98-.09 1.11-.02 1.3.75zm-1.08-2.52c.06-.17.12-.34.23-.68.16.6.27 1 .39 1.47l-.16.15c-.23-.11-.57-.17-.64-.33s.11-.41.18-.62zm-.69-11.48c.13.18.34.35.37.55.11.75-.15 1-1.22 1 0-.37-.11-.75 0-1s.58-.43.85-.55zm.28-2c.33 1.24.1 1.63-.93 1.66-.29-1.01-.08-1.41.94-1.66zm-2.36 33.41c1.08-.1 1.52.15 1.53.93-1.21-.16-1.45-.34-1.52-.96zm1.61 2.12c-1.33-.07-1.63-.24-1.55-.86 1.21-.1 1.62.12 1.56.83zm-.28-2.53c-1.13-.07-1.39-.25-1.26-.89 1.26-.11 1.45.04 1.27.89zm-1.57-2.23c1.14-.11 1.59.15 1.45.84-1-.1-1.42-.34-1.44-.87zm0-1.84c.56.34 1.44.3 1.52 1.18-1.49-.03-1.76-.24-1.48-1.21zm1.31-.38c-1.46 0-1.69-.39-1.3-1.49 1.31.07 1.65.49 1.31 1.46zm-1.21-2.55c0-.12.32-.33.48-.32.62 0 .82.33.65 1-.42-.26-1.2.05-1.13-.68zm.58-.84c-.78 0-.69-.45-.58-1 .56.09 1.18 0 1.21.67.01.38-.34.29-.63.28zm-.2-17a5.09 5.09 0 01.51.53 2.79 2.79 0 01-.35.26l-.49-.57zm.19-2.72v2.1h-.28a2.27 2.27 0 01.28-2.19zm-.06 6c-.6 0-.28-.53-.31-.81a6.28 6.28 0 01.07-1.24c.73.4.53.85.52 1.21s.28.69-.28.7zm-.35 3.25c.69-.05.88.3.62 1.22-.77-.24-.79-.28-.62-1.36zm0 3.18c.76.21.95.54.75 1.3-1-.17-1.21-.57-.76-1.44zm1 2.54a.58.58 0 01-.44.37c-.56 0-.73-.31-.6-1.11.58-.13 1.04.01.99.6zm-.51 3.48c-.76 0-.62-.51-.56-1 .55.17 1.21.1 1.13.76-.06-.07-.42.1-.62.1zm-.58-2.47c.79-.19 1.18.14 1.12 1-1.08-.07-1.23-.21-1.17-1.14zm1.08-8.08l.16-.12c1.12.17 1.24.28 1 1.2zm1-5.34c-.68-.66-.56-3 .26-4 .25 1.2-.33 2.49-.3 3.86zm.21 3.75c-1.2-.09-1.2-.09-1.2-1.05v-.9a1.54 1.54 0 011.16 1.81zm-1.83-9.75c-.28-.74-.12-1 .69-1.2.17.65 0 .87-.73 1.06zm.62.59c-.07.62.21 1.33-.69 1.74-.55-1.16-.24-1.92.65-1.88zm-6 3.82c1.29.46 2.58.94 3.89 1.37.51.17.76.38.53.89-2-.54-4.15-.68-5.3-2.69.39.02.63.19.89.29zm-1.08-1.63l.92-.6v1.24zm5.35-1.8l.22.17v4.18l-2.21-.86a4.78 4.78 0 00-1-.39c-1.13-.14-1.23-.77-1.18-1.56s.2-.85 1.34-1.21c0 .3.07.58.1.87 0-1.62 1.68-1.89 2.85-2.61.32.5.06.77-.29 1.06a5.58 5.58 0 00-2 2.23zm-13.44 7.42c1.22.27 1.28.36 1.09 1.47-.85.01-1.23-.53-1.09-1.47zm-.05-1.4c.8-.08 1.23.26 1.14 1-.65-.14-1.18-.31-1.14-1zm1.29 9.28c-.85-.14-1-.36-1-1.08 1 .05 1.22.3 1 1.08zm0 1.34c-.81-.08-1-.26-.94-.84.87.08 1.04.22.94.84zm-.11-4.28c-.87-.14-1.12-.43-1-1.16 1.11.17 1.2.35 1.04 1.16zm-1-2.9c.89 0 1.12.32.91 1.2-.93-.28-1.1-.51-.91-1.2zm.22 3.33c.37.21 1 .22.83 1-.43-.35-.74-.62-1-.88zm0 4.4c.91.08 1.1.26.9 1l-1.09-.84zm1 2.37c-.58-.13-1.07-.32-1.08-.93.85-.05 1.19.24 1.08.93zm-.92.48c.94.14 1.14.36.88 1.24l-1.07-1.08zm-1-15.39c-.31-.19-.42-.6-.62-.9l.25-.15c.49.36 1 .74 1.49 1.08s1.13.64 1.69 1c.29.17.72.29.48.79-1.14-.64-2.26-1.19-3.31-1.82zm0 3.6l-.83-1.5c1.06.27 1.31.7.85 1.5zm-.09-6.5a2.91 2.91 0 01.27-1.07h.37v2.06c-.57-.12-.56-.62-.62-.99zm.94 1.25c0-.14.38-.34.6-.51l.28.13c0 .38-.07.76-.1 1.15l-.24.09a2.79 2.79 0 01-.52-.84zm2.42.66v1.46c-.83-.25-1.37-.82-1.31-1.47a1.44 1.44 0 01.37-.68c0-.07.28 0 .43 0a1 1 0 010 .42c0 .11-.21.2-.44.41zm-.81 6.46l.19.91c-.64-.23-.69-.38-.17-.91zm0-2c0 .39.06.79.09 1.3-.56-.48-.59-.78-.09-1.33zm-.15 3.68c.53.28.4.64.25 1-.57-.28-.61-.44-.25-1.03zm-.08 2.94c.7.17.73.53.53 1.05-.86-.14-.65-.59-.53-1.08zm.13 5.92c.72.07.81.2.64.93-.73-.06-.88-.27-.64-.96zm-.06-1.34l.23-.14.53.64-.26.17c-.38-.1-.64-.26-.5-.7zm0-1.37c0-.09.24-.16.36-.24l.53.87c-.82-.03-1-.28-.94-.66zm2-4.38c-1.26-.22-1.54-.58-1.23-1.47 1.29.12 1.46.32 1.23 1.44zm0 1.2c-1.07-.16-1.28-.32-1.18-.89 1 0 1.24.19 1.21.86zm-1.14.39c1.1.09 1.33.34 1.11 1.21-1.16-.13-1.4-.35-1.08-1.24zm1.21 2.45c-.61-.15-1.18-.14-1.21-.83.65.08 1.16.06 1.24.8zm.16 6.17l-1.36-.95c1.18-.33 1.64-.03 1.39.92zm-.06-1.5c-.89 0-1.17-.39-1.06-1.22 1.03-.04 1.3.22 1.09 1.19zm-1.14-2.62c1 .09 1.23.28 1.14.89-.88.04-1.19-.2-1.11-.92zm1-.43c-.91-.13-1.26-.4-1.13-.91 0-.12.35-.28.52-.26.75.03.89.33.69 1.14zm-.15-9.06c-.49-.23-.57-.67-.27-1.44.53.18.61.59.35 1.41zm-.37-2.8l.32-.12.37.82c-.91-.05-.69-.43-.69-.7zm.53 4.32c-1.15-.07-1.48-.41-1.27-1.36 1.41.53 1.41.53 1.23 1.36zm-.79-1.9c-.69-.09-.82-.4-.61-1.46.66.14.76.41.57 1.46zm1.37 2.8c1 .34.52.9.52 1.35-.91-.24-.42-.8-.56-1.35zm.12-3.47c.57.12.62.29.43 1.48-.66-.19-.72-.58-.47-1.48zm0-1.42c.65.1.56.44.43.87-.74-.15-.66-.48-.5-.87zm.06 3.33c.7.23.47.67.42 1.08-.71-.09-.79-.28-.49-1.09zm.14 3.32a4.3 4.3 0 01.42.56s-.21.17-.33.26l-.45-.6zm5.86-5.7l-.44.69a1.5 1.5 0 01-1.74.59 1.14 1.14 0 01-.51-.7 10.17 10.17 0 010-1.59c1.88.41 3.63.78 5.37 1.17a.46.46 0 01.26.35c-.16.86-.36 1.71-.54 2.56h-.19zm.59 3a4.28 4.28 0 01-2.6-1l1.74-.72c.21.55.5 1.15.79 1.75zm.76 1.81c.4.14.63.31.53.73a40.35 40.35 0 01-3.76 9.84.92.92 0 01-.13.21c-.31.32-.38.94-1.06.82-1.27-.24-1.6-.53-1.63-1.41-.06-2.09-.07-4.18-.14-6.27a9.26 9.26 0 00-.26-1.42l.73-.13c-1-.92-.74-1-.14-1.31-.53-.4-.85-.87-.55-1.52h.77a1.5 1.5 0 01-.83-1.85c.18-.63-.36-1.38.38-2-.71-.59-.75-1-.09-1.29l-.56-.9c.69-.12 1 0 1 .5.08.94.19 1.89.21 2.83a1.46 1.46 0 001.19 1.62c1.4.59 2.84 1.11 4.27 1.58zm-6.59 7.56c-.57.09-.84-.11-.84-.53a.5.5 0 01.36-.3c.72.02.37.49.48.83zm-.14-1.22c-.74-.17-.88-.42-.72-1.4.81-.01 1.01.33.72 1.39zm-.62 1.71c.87 0 1 .19.74 1.22-.85.04-1.03-.23-.74-1.23zm.15 1.53c.25.11.63.17.72.34s0 .53 0 .8h-.51a5.82 5.82 0 01-.49-.92zm.38-5c-.5-.05-.88-.14-.63-.7.55-.04.81.14.63.68zm-.14-1.22c-.66-.1-.73-.24-.49-1.1.72.13.81.3.49 1.04zm8.6-8.51c-1-.2-1.87-.36-2.76-.57-1.47-.34-2.92-.73-4.39-1.08-.65-.16-1.22-.38-1.36-1.06 0 .15-.11.3-.19.51-1.06-.36-.17-1.31-.87-1.79 0 .48-.07.92-.11 1.36-.88-.09-1.08-1.1-.42-1.85l-.35-.41.07-.14 1.47.43v.31l.52-.08.68-.13-.63.75c.61.16 1.07-.73 1.66 0l-.73.42.06.17 1.67-.52c-.23.37-.35.57-.54.86l1.22-.36.09.08-.74.69 1.94-.48.18.28-.82.35.2.21 1.69-.61.11.1-.69.66.07.12 1.69-.51.09.11-.84.68.07.12 1.9-.72c.06.07.11.15.16.22-.33.3-.65.6-1.12 1l1.06-.29zm22.34 4c-.33.36-1.12.39-1.84.6v-2.07c0-.11.19-.3.25-.29.49.09 1.2.09 1.41.36s.44 1.03.18 1.3zm.12 2.35c0 .38-.07.76-.11 1.14h-.25c0-.38.07-.76.1-1.14zm-1.87 1.28l1.95 2.38c-2.19-.9-2.18-.92-1.95-2.48zm1.85-6.55c0 .38-.15.59-.62.56h-.57c-.84 0-1-.23-.58-.9.78.29 1.07.17 1.26-.51-.05 0-.12-.09-.17-.08-1.35.19-1.44-.4-1.19-1.47 0-.15.18-.34.12-.44-.53-.83-.11-1.48.54-2.08.09-.09.17-.2.25-.29s0 0 0-.12l-.77.51c-.33-.94.5-1.46.87-2.15l-.85.6c0-.57-.12-1 .62-1.19a4.39 4.39 0 001.14-.75.79.79 0 01.1.34c-.08 2.6-.12 5.22-.15 7.87zm-1.56-10.37l-.14-.11.6-.88-.5.06c.25-.7.88-.91 1.64-1.13a24.57 24.57 0 010 3.44c-.1.65-.95.93-1.65 1.24-.57-1.39.31-2.34 1.11-3.35zm1.77-25a10 10 0 000 1.64c-.07 6.55-.15 13.1-.2 19.65 0 .66-.44.55-.92.58s-.68-.16-.66-.6c.08-1.69.13-3.38.16-5.06a3.3 3.3 0 00-.32-1.42v.7l-.18 5.67a.72.72 0 010 .36 1.36 1.36 0 01-.3.34c-.09-.12-.26-.24-.26-.35 0-.94.07-1.88.08-2.81v-4.82a1 1 0 000-.3l-.9 1.34.68-.28c0 .78.37 1.57-.69 2.07l.53-.15v3.24c0 .45-.36.78-1.07.8.1-.74-.31-1.54.67-2-1.11-.32-.4-1.22-.86-1.7l-1.13.51c-.5-1.09.47-1.55 1.08-2.19l-1.07.41c-.35-.75-.33-.78 1-2.14l-1.93 1c.75.57.73 1 .23 1.72a3.57 3.57 0 01.21 1.23c-.07.26-.48.46-.73.69l-.35-.13v-3.06l-.22-.09-.58.64h.51a1.65 1.65 0 01-.83 1.81h.68c.21.82 0 1.18-1 1.52v-3.52c-.37.4-.73.8-1.1 1.19l.72-.23c.4.87 0 1.48-.78 2l.67-.19c.32.75-.31 1.12-1 1.65l1-.18-.14.77-1.52-.46-.1.15 1.44 1.27c.42 1.51-.78 2.44-2.29 3.28l.57.29c.41-.37.76-.7 1.1-1l.89.69c.17-.8.26-1.48 1.25-1.58.29.89.11 1.31-.79 1.89l.49.29-.8.45a1.17 1.17 0 000-.38 4.15 4.15 0 00-.3-.43c-.15.1-.35.18-.43.31a1.12 1.12 0 01-1.51.51c.22.73-.5 1.37-.13 2.07l.28.06c.09-.23.29-.48.25-.68-.18-.81-.06-1 1-1.17-.1.21-.2.38-.27.57s-.3.57.31.57c.07 0 .17.12.21.19l.64 1.16-.19.1-.31-.29a5.23 5.23 0 01-.49 1.93c-.37.54-1.16.86-1.68 1.41l1.58-.68c0 .8 0 1.5.14 2.19a6.16 6.16 0 00.46 1.19l1.3-.62c.27.73-.76.83-.84 1.42l.78-.29v.87c-1.05.17-1.1.12-1.18-.73a1.42 1.42 0 00-.36-.71c-.39.52.66 1.58-1.11 1.47l.88.86-.14.19-.87-.29c0 .19.09.46.15.73l-.18.07-.89-.9c-.35.48-.74.89 0 1.36.22.15.38.41-.07.62-.17.07-.27.35-.29.54a13.43 13.43 0 000 1.55 8 8 0 00.13 1.06c.74-.35 1.46-.66 2.17-.22.18.11.13.51.19.82l-.82.11c-.12.63 0 .84.71.84a10.9 10.9 0 011.14-.07 1.94 1.94 0 01.63.31c-.21.12-.4.34-.62.36a13.65 13.65 0 01-1.43 0h-.4c-.21.76-.17.82.67.82a25.37 25.37 0 006.73-.63c.48-.13.57 0 .77.69.2 0 .41-.06.53 0a7.38 7.38 0 011.14.73.94.94 0 01.3.63v2.45c.06 1.9.14 3.81.2 5.72v.65h-5.59V190l3.83-.32v-.23a4.94 4.94 0 00-.75-.14l-7.22-.25c-.45 0-.66.1-.65.51 0 1.13 0 1.15 1.14 1.17l7.54.09h.06c1.55-.08 1.55-.07 1.55 1.27v12.14h-.82l-21-2c-.21 0-.39-.24-.58-.37a2.24 2.24 0 01.65-.25 5.65 5.65 0 001.19-.16 9 9 0 01-1.31-.35c-.22-.09-.34-.36-.5-.55a4.34 4.34 0 01.7-.14 3.88 3.88 0 01.75.11l.08-.15a4.32 4.32 0 00-.69-.32c-.35-.12-.82-.14-.7-.58 0-.08.59-.08.91-.06a7.33 7.33 0 01.94.13l.07-.17c-.44-.17-.86-.36-1.31-.51s-.56-.39-.32-.8l2.29.38.08-.18c-.57-.19-1.14-.39-1.72-.56s-.81-.27-.6-.83l2.83.42a4.41 4.41 0 00-2.19-.83c-.47-.11-.81-.26-.55-.79l2.22.26.05-.21-1.7-.51c-.7-.21-.7-.21-.53-1l2.59.37-.76-1.06 1.12-.28c0 .5.09.9.15 1.43v-3c-.68.15-1.27.19-1.4-.42 0-.22.23-.49.36-.74h.23c-.17-.13-.43-.24-.49-.4a2.46 2.46 0 01-.07-.77 2.14 2.14 0 01.8.21c.19.14.22.43.34.65a4.86 4.86 0 00.31.49 10.71 10.71 0 01.22-1.26 2.14 2.14 0 00-1.25-2.15.78.78 0 01-.48-1.29c.11-.13.22-.24.38-.41l.88 1.15c.55-.53.37-1 0-1.44-1.4.06-1.63-.08-1.43-.87l.69.1.14-.12c-.21-.22-.37-.54-.65-.65-.54-.23-.42-.5-.27-.88.7.2 1.33.33 1.32 1.1 0 .25.25.49.38.74l.17-.05c-.1-1-.17-1.94-.3-2.91-.07-.53-.56-.76-1.11-.81s-.82-.32-.64-.86l.61-.11-.95-1.62.2-.13 2.08.55c.22-.7.14-.81-.62-.94l-.49-.07c-1.1-.16-1.1-.16-.94-1.24 1.19.34 2.43.53 3.15 1.36-.15.31-.39.55-.34.72a1.12 1.12 0 00.63.47c.13.05.38-.1.55-.2a7.79 7.79 0 011.16-.73 21.36 21.36 0 012.09-.54l.57.42.26-.11c.15-.81.3-1.63.44-2.45 0-.13 0-.35-.08-.39-.66-.33-.33-.72-.19-1.16a2.11 2.11 0 000-2c-.08-.12.08-.35 0-.52a3.06 3.06 0 00-.25-.6l-.32.05-.2 4 .14-.07a1.94 1.94 0 01.36.48c0 .07-.21.2-.41.22l-.33 1h-.33v-3.55h-.32a3 3 0 00-.17.63c0 .41.07.82 0 1.23 0 .16-.19.32-.28.48l-.45-.5-.74 1c-.91-1.23-1.4-2.43-.33-3.77h-.19l-.64.8h-.09c.16-.48.31-1 .5-1.44 0-.06.28 0 .42-.08a1.68 1.68 0 00.59-.26c.06-.06-.1-.41-.18-.42a.94.94 0 00-.65.14c-.51.69-.87 0-1.23-.06-.06.39-.12.79-.17 1.19l-1.71-1.05h1c.52-.9-1-.38-.91-1 1.11-.35 1.81-.26 2.16.21a10.29 10.29 0 00.87-.76.76.76 0 00.17-.56c0-.43-.16-.85-.26-1.34l-.86.24c-.3.31.38 1.05-.83 1.15.17-.94.32-1.81.46-2.69a1.35 1.35 0 000-.28c0-.7-.08-1.39 0-2.08s.16-1.22.25-1.83h.23v4.9l1.21-1.87-.92.12c.1-.85.2-1.67.3-2.49s-.13-1.2-1.21-1.35c-.06-.69.08-1.54-1.17-1.55-.3-1.14-.17-1.58.62-1.93.08.51.17 1 .25 1.49h.3v-2c0-.3-.23-.5-.65-.34l-.53.19c0-.47-.1-.89-.14-1.3a3.88 3.88 0 00-.21-1.19c0 .75-.09 1.49-.12 2.24 0 .52-.28.84-1 .87l-.19-1.27h-.09a7.85 7.85 0 000 1c.08.62-.28.78-1.06.69.3-6.47-.19-13 .6-19.42v14.7h.25c0-.47.1-.94.1-1.41 0-2.73 0-5.46.09-8.18s.32-5.45.51-8.17a4.45 4.45 0 01.32-1h.18v4.72h.15a9 9 0 00.15-1c0-1.22 0-2.44.08-3.66a3.18 3.18 0 01.34-.93l.23.06v4.46l.14.06a2.31 2.31 0 00.3-.74v-3.65c0-.42.09-.72.75-.84v3.88h.27a3.55 3.55 0 00.19-.69v-2.87c0-.44.13-.75.78-.91l.11 1.53h.14v-1.34c.32.63-.19 1.37.69 1.92 0-.5-.08-1-.11-1.49a1.45 1.45 0 010-.62c.05-.16.25-.29.39-.44a5.7 5.7 0 01.3.54c.08.2.13.42.2.63h.18v-1.17h.8v1.05l.24.05c.07-.23.11-.48.2-.7a3.23 3.23 0 01.35-.5c.16.16.39.3.46.48s.05.48.21.74c0-.39.07-.78.1-1.16.9-.14.9-.14.91.57v.77h.24a3.64 3.64 0 00.15-.8c0-.49.13-.75.86-.57v2.47h.22a3 3 0 00.17-.61v-1.28a1.68 1.68 0 01.33-.55c.15.19.4.37.42.57.06.71 0 1.43.06 2.14a.72.72 0 00.24.55c0-.87.08-1.74.17-2.6 0-.19.2-.5.36-.53.44-.07.54.25.54.56v1.82h.2a13.23 13.23 0 01.17-1.41c.07-.3-.21-.8.56-.77s.88.32.82.86a2.25 2.25 0 00.16 1.16c.08-.57.15-1.13.23-1.77l2.21.65-.94.62c-.12-.27-.21-.47-.29-.67.09 1-.79 1.34-1.54 1.8a19 19 0 00-2.15 1.52c.54-.3 1.09-.58 1.62-.89l3.6-2.12s.1-.06.13-.05l1.94.59c.84.28.77.79.7 1.41zm-2.93 41.58l-.61.49a3.55 3.55 0 01-.13-1c0-.16.33-.32.55-.41a.51.51 0 01.38.24c.15.64.24 1.3.35 2-.69-.19-.69-.19-.43-1.29-.02-.05-.11-.06-.11-.03zm-4.74-.43c.66 0 1.13.18 1.06.74 0 .12-.43.31-.63.28-.69-.1-.34-.6-.41-1.02zm-1-19.82c.49.06 1 0 1 .58s-.33.84-1 1zm0-1.34c-.11-.68.37-1 1.23-1.16a3.73 3.73 0 01-.12 1.2c-.11.24-.51.4-.77.6a2.34 2.34 0 01-.29-.63zm2.71 9.85c0-.17.32-.36.49-.55l.19.1v2.61c-1.05-.62-.57-1.46-.65-2.16zm3-.81l.36.09-.33 1.18-.37-.08c.16-.4.29-.79.42-1.22zm-.21-1.56a6.65 6.65 0 01.33-.84l.28.07a3.75 3.75 0 010 .82c0 .11-.24.18-.37.27 0-.11-.18-.23-.16-.32zm.2 8.3c-.17-.07-.46-.11-.48-.21-.1-.42.14-.72.6-.88l.26.09zm.2 2.49a.86.86 0 01-.55 0 2.72 2.72 0 01-.29-.73l.18-.16c.24.05.62 0 .7.17a.78.78 0 01.04.72zm.06-5.15c.16.38.12.76-.55 1-.06-.43-.11-.76-.19-1.31.44.12.77.2.82.31zm-.56-1.13c.07-.48.18-1 .27-1.44h.29v1.41c0 .08-.19.23-.25.21s-.24-.11-.23-.16zm-.44-10.11c-.19 0-.65-.11-.66-.2-.08-.58.47-.73 1-1 .09.51.44 1-.26 1.2zm0 2.94c.58 1-.29 1.53-.66 2.24-.51-.47-.12-1.83.76-2.24zm-.94 2.91l.85-.56c.39.7.26.84-.75.56zm.93 1.25c.1.72-.52 1.15-1 1.66.05-.72.62-1.17 1.1-1.63zm-1.91-9.73c-.36-1.31-.09-1.59 1-1.82.45 1.02.06 1.7-.9 1.82zm.9.15c.21 1.27 0 1.8-.91 1.92-.29-1.22-.08-1.62 1.01-1.92zm-.39 20.75c.1-.45.17-.79.24-1.16 1 .56 1.06.79.43 1.29v-.53zm.28-4.64c-.14-.43.21-.65.82-.75 0 .37 0 .68.1 1.22-.34-.21-.77-.3-.82-.47zm-.26-11.61c.28.81.11 1.11-.68 1.34a1.06 1.06 0 01.78-1.34zm.09 1.79c-.24.77.33 1.62-.77 2.09-.31-.98-.07-1.77.85-2.09zm-.81 7a2.77 2.77 0 01.48.89 6.35 6.35 0 010 1.63c0 .18-.26.35-.4.52-.14-.16-.38-.31-.39-.48v-2.47zm.33 6.44l-.33 1.16-.31-.07.33-1.15zm-1.5-19.12c-.28-1 0-1.55.8-1.76.4 1 .13 1.59-.8 1.76zm.85.21v1.2l-.24.11c-.24-.24-.69-.49-.67-.72s.48-.45.75-.68zm-.12 2.14c.28 1.09 0 1.51-.86 1.57-.19-1.14 0-1.48.86-1.61zm-.1 2.75c.14.73.05.85-.75 1.1-.3-.56-.16-.78.75-1.14zm0 1.58c0 .76.33 1.55-.76 1.94a1.26 1.26 0 01.77-1.98zm0 2.08c0 .67-.09 1.29-.13 1.91-1.07-1.19-1.05-1.53.14-1.95zm-.67 14.16c.63.07 1.29-.34 1.89.09.69-.59.94.23 1.45.23v.23h-3.86c-.18-.4-.04-.66.53-.59zm3.18-10.7c-.18 0-.62 0-.79-.15s-.08-.55 0-.78a7.71 7.71 0 01.8-1l.22.07c-.02.52-.11 1.11-.22 1.82zm-3.88-4.57c0 .43-.06.78-.09 1.28-.68-.68-.66-.85.1-1.32zm-.44 4.47l-.75.36-.24-.27a1.65 1.65 0 01.53-.39c.11-.07.31.18.47.26zm-.65-5c0-.71.23-1 1-1.11.19.6 0 .81-.99 1.09zm.7 14.91a5.69 5.69 0 01-1.26.16v-1.08a5.66 5.66 0 011.26.23c.13.03.12.66.01.66zm-1.65-4c0 .06-.2.16-.31.24-.11-.24-.22-.48-.34-.72l.35-.11a3 3 0 01.31.56zm-10.39 18.89a.48.48 0 01.39-.22c.4.05.81.15.8.61v.47l-.63-.21c-.4-.11-.7-.28-.55-.65zm-.16-4.38l1.19.58-.15.21c-.83.17-1.04.04-1.03-.79zm-.22-6.28c1.13.06 1.36.23 1.28.89-1.06.06-1.36-.15-1.27-.89zm5.12-5.22a6.41 6.41 0 01.61-.24 9.94 9.94 0 01.53.89l-.22.09zm-3.29-14.41v1.64l.36-.44h.18a21.08 21.08 0 01-.16 2.25c0 .19-.45.32-.82.56 0-.33-.08-.49-.09-.66q-.08-1.33-.12-2.67c.01-.31-.01-.68.66-.68zm-.45-1c.07-.38-.17-1 .82-.9a4.26 4.26 0 010 1c0 .11-.33.23-.52.26s-.31-.21-.29-.33zm0 5.66c.14-.17.45-.22.8-.37v2.33c-.78-.25-1.25-1.43-.82-1.93zm42.39 28.71v4.33c0 .8 0 .81-1 1l-15 2.39-6.33 1a3.13 3.13 0 01-.53 0l-.08-.2 2.32-.77v-.1l-2 .22c-.24-.66.28-.74.78-.83l1.35-.29v-.2h-2l-.07-.24c.87-.55 2.16-.16 3.2-.87a8.77 8.77 0 01-1.17 0c-.25 0-.65-.16-.68-.29-.09-.4.32-.4.66-.45.52-.06 1-.15 1.54-.23v-.23l-1.16-.07c-.31 0-.63 0-.94-.1v-.43c.28-.09.61-.09.91-.16.64-.17 1.4.08 2-.33-.68-.73-.64-.88.27-1.44-.82-.31-1-.69-.38-.92a3.37 3.37 0 01.55-.12c.15 0 .3-.1.45-.15-.33-.37-1.19.09-1.23-.62 0-.13.14-.38.23-.39h1.29v-1.22l1.28-.34c0 .54.07 1 .1 1.48h.2c.06-.78.15-1.56.18-2.34s0-1.58 0-2.39a1.62 1.62 0 001.77.11c-.26-.64-.91-.59-1.59-.62.13-1.06-.22-1.84-1.74-1.86.15-.44.26-.79.42-1.25l1.24.92.52-.63c-.26-1-1.26-.69-2.2-.79l.65-.87c-.28-.36-.53-.88-1.38-.76-.39.05-.61-.49-.38-.89.05-.09.24-.15.23-.22a19.9 19.9 0 00-.33-2.3c0-.16-.42-.29-.67-.36a7.47 7.47 0 00-1-.13 17.71 17.71 0 012.46-1 5.23 5.23 0 011.72.26l-.5-1a23 23 0 012.45-1c.68-.21 1 .1.88.68a.71.71 0 01-.44.34 4.34 4.34 0 01-.91.05c.32.29.49.6.75.65a.82.82 0 01.71.68 2 2 0 002.22 1.19c.83-.1 1.65-.25 2.48-.32a2 2 0 01.75.24c-.17.21-.29.53-.52.61-.61.22-1.28.31-1.92.49a4.94 4.94 0 00-.77.38 4.56 4.56 0 00-.81-.26 2 2 0 00-.65.15c.12.19.19.46.37.53a2.54 2.54 0 001 .1c1-.12 2-.28 3-.43.32.78.17 1-.71 1.08s-1.49.18-2.25.27c.69 1.53 1.87.65 2.88.49.19.44.16.72-.45.81-.89.12-1.77.28-2.69.43.07.66 1 .64 1.48 1.12l1.63-.6c.18.62.18.62-1.54 1.05l1.11.88-1.5.76c.46.71 1.18.43 1.86.41l.06.93c0-.76.23-1.33 1.41-1.21 0 .36.05.75.08 1.31.34-.74-.15-1.83 1.39-1.67v1.8h.24v-1.29c0-.43.24-.89 1.07-.86v1.78h.2c0-.52.07-1 .15-1.55 0-.18.14-.45.3-.51.9-.34 1.83-.64 2.79-1a2 2 0 01.08.31c-.04 2.61-.1 5.23-.14 7.87zm-6.27-11c.22.54 0 .74-.71.76-.18-.59.07-.82.71-.76zm-.38-1.8a.53.53 0 01.44.26c.11.41 0 .73-.7.66-.12-.4-.25-.76.26-.95zm.35 3.43c.18.42.25.77-.31.87-.17 0-.53-.14-.55-.25-.09-.54.39-.56.86-.65zm.62-1.21c-.18-.68.24-.85.8-.85.14 0 .42.18.41.25-.09.6-.69.49-1.21.57zm.51 1.8c-.18 0-.55-.13-.57-.24-.13-.68.56-.66 1.11-.86.11.51.21.98-.53 1.07zm.58-4.56c.3.74 0 1.11-1.09 1.14-.22-.92-.11-1.04 1.09-1.17zm-1-1.13c-.08-.53.26-.71 1.15-.74l.1.14zm2.4 2.58c.14.64 0 .74-.86.79-.21-.67.29-.74.82-.82zm0-1.88c.16.8.13.83-.71.93-.26-.73-.17-.81.68-.96zm0 3.56c.27.79.13 1-.91 1.05-.22-.84-.06-1.05.85-1.08zm2.93 1.28c-.83.25-1.63.57-2.51.88-.15-1.06 1.26-1 1.62-1.84l-1.51.31c-.24-.52-.14-.89.49-1.14.34-.14.65-.35 1-.52l-.09-.22-1.33.16c-.61-.89.68-1 1-1.63l-.94.08c-.51-.88.26-1.33 1-1.79l-.19-.11h-1.11l.4-.56c-.54-.45-.53-.56.11-.89a1.52 1.52 0 00.6-.51c-1.61 0-3 .74-4.6.84l3.59-1.35-.05-.16a5.81 5.81 0 00-.94.2c-1.54.59-3.07 1.22-4.62 1.79a7.09 7.09 0 01-1.4.28c-.52.07-1 .1-1.56.15s-.78 0-.85-.42.17-.64.67-.67l.59-.08c-.07-.64-.66-.61-1.11-.7-.23-.54-.44-1.05-.66-1.56l.12-.17c.62.94 1.48.79 2.42.56a1.59 1.59 0 00-1.61-.82c.29-.9 1.85-.86 4-1-.25.51-.32.54-2.29 1 .29.62.59.78 1.36.63.94-.18 1.86-.39 2.8-.59a3.1 3.1 0 01.76-.11 16.67 16.67 0 01-5.69 2.06 1.34 1.34 0 001.33.54 37 37 0 006.79-1.68c.28-.11.53-.27.8-.4l-.11-.24-4.66 1-.06-.12 4.76-1.81v-.15h-.87l.82-.64c-.69-.34-1.2.35-2 .08.14-.25.21-.57.44-.74a2.76 2.76 0 01.92-.24l.05.16.54-.86c-.78-.59-.22-1.17.14-1.79a.76.76 0 01-.35-1.22c.09-.29.07-.72.3-.85a25.3 25.3 0 012.39-1v.79c0 5.39-.05 10.78-.05 16.17a.81.81 0 01-.71.83z" fill="#272727"/>
  <path d="M108.66 184.22l8 .47v.22a5.14 5.14 0 01-.86.14h-6.51c-.69.05-.78-.06-.63-.83zm8.1 2.24a1.94 1.94 0 01-.61.18c-1.91.07-3.82.13-5.73.16a6.13 6.13 0 01-1.35-.14c-.15 0-.26-.24-.39-.37.16-.11.31-.32.46-.32.8 0 1.59.07 2.38.09 1.5.05 3 .08 4.51.12.23 0 .46.06.7.09zm-.19-3.62a3 3 0 01-.69.24c-2 .16-3.91.31-5.86.44a2.29 2.29 0 01-.94-.14c-.23-.1-.38-.35-.57-.54l.16-.13h7.83zm-.97-3.31a8.67 8.67 0 01-1.2.28c-1.75.13-3.5.23-5.26.35-.33 0-.65-.06-.56-.42a.73.73 0 01.53-.34c1.92-.08 3.83-.12 5.75-.17h.7zm-6.37 1.51h6.82v.14a4.75 4.75 0 01-.54.14c-1.74.15-3.49.3-5.24.43a.9.9 0 01-1.04-.71zm7.77 9.64h-8.19v-.22c1.38 0 2.77-.11 4.16-.07s2.72-.3 4 .09zm-15.4-8.89c.37.61.76 1.21 1.1 1.83a.4.4 0 01-.14.39c-.48.21-.24.42-.07.68a6.62 6.62 0 01.35.75c-1 .05-1.34-.42-1.05-1.1a.56.56 0 00-.09-.48c-.25-.32-.51-.6 0-.93.07-.05.06-.26 0-.37a4.83 4.83 0 00-.33-.64zm5.75-13.91l-1.33-.6c.15-.16.41-.49.46-.47.56.27 1-.13 1.54-.12a2.07 2.07 0 01.63.25c-.14.19-.23.43-.42.55a5.31 5.31 0 01-.88.39zm-5.78 10.64c.13.07.32.1.38.2s.33.46.28.65c-.18.7 1 1.43-.14 2.1a8.28 8.28 0 01-.55-.92c-.06-.14.05-.34.08-.51a2.22 2.22 0 00.06-.72 2.56 2.56 0 00-.33-.69zm.84-19.41c-.74-1-.74-1-.19-2.31.36.38.73.76 1.07 1.17.05.06 0 .26-.12.35-.23.27-.49.51-.76.79zm-7-28.78l-4.75 5.58-.08-.07 4.57-5.74zm7.11 26.13c-.28-.53-.29-.76-.15-2.32 1.24 1.01 1.27 1.48.15 2.32zm.41 32.21c-.59-.25-1.6-1.59-1.49-1.89s.34-.31.56-.49c.32.49 1 .74.59 1.46-.1.16.18.52.34.92zm.97-17.33l-.4-1 .52.24a6.77 6.77 0 01.88-.25c.49-.09.63.16.63.55s-.32.44-.69.43a7.88 7.88 0 00-.94.03zm-.49 13.17a2.27 2.27 0 01.35.74 12.27 12.27 0 01-.12 2.47c-.13-.2-.34-.4-.37-.61a17.78 17.78 0 01-.16-1.91 3.4 3.4 0 01.08-.64zm.1-4.15c-.72-1-.38-2-.44-3 .6.39.77 1.61.44 3zm1.68 8.5c-.63.08-1 0-.86-.61 0-.13-.13-.29-.12-.44a5.44 5.44 0 01.16-.64c.25.16.64.27.72.48a3.94 3.94 0 01.1 1.21zm-.78-17.11l.15 1c-.23.05-.53.14-.84.19s-.69-.42-.59-.91zm-10.9-38.29l1.6-1.72a1.89 1.89 0 01-1.43 1.88zm9.77 47.22c.56.88.28 1.83.28 2.76a3.73 3.73 0 01-.28-2.76zm4.98 7.78a.54.54 0 010 .18c-.08.19-.18.38-.27.57a3.45 3.45 0 01-.43-.53.72.72 0 01-.05-.48 2.78 2.78 0 01.29-.53 4.15 4.15 0 01.45.49c.06.09.01.22.01.3zm-1.32-33.84a4.1 4.1 0 01-.34-.51s.19-.2.2-.19c.25.18.5.38.83.64l.4-.13.09.12-1.42.9-.18-.12zm-1.78 13.05a8.47 8.47 0 01.14-2.84h.2v.73c0 .59.08 1.18.1 1.78 0 .13-.13.27-.2.4zm1.65 18.79a6.74 6.74 0 01-1-.38c-.08 0 0-.5 0-.52a1.23 1.23 0 01.81 0c.21.14.27.45.39.69zm-1.01 6.61h3.54a20.34 20.34 0 01-3.56.28zm-4.54-38.09v-2.87l.26 2.87zm-.37-25.58a1.46 1.46 0 01-.94 1.41 1 1 0 01.94-1.41zm-7.25 4.59l-1.49 2c-.18-.53.78-1.89 1.49-2zm18.66 1.91l-4.24-.24v-.2l4.25.31zm-16.02-1.08l1.13-1.51c.26.84-.19 1.45-1.13 1.51zm-.81-1.05l-1.49 1.78a1.81 1.81 0 011.49-1.78zm1.57-3.71l-1.32 1.4c.02-.94.51-1.44 1.32-1.4zm1.93 1.4c.19.84.06 1.07-.62 1.18-.2-1.18-.2-1.18.62-1.18zm4.79 59.69a1.1 1.1 0 001 1.21l-.12.16h-1.1v-1.35zm2.25-3.22l.9 1v.16c-.3 0-.78 0-.87-.14a2.57 2.57 0 01-.17-1zm-.89-9.57c-.61-.15-1.06-.33-.9-1l.9.08zm2.21 14.01c-1.55.23-1.8.22-2.35-.16h2.37zm-3.11-11.14v-.7c.94-.09 1 0 .85.76zm2.8 1.71a3 3 0 01-.7.34c-.37 0-.57-.16-.49-.47 0-.14.3-.36.39-.34a4 4 0 01.8.47zm-.76-20.23c-.09-.76 0-.88.78-.95.16.57-.12.85-.78.95zm1.97 15.27l-.54.51c-.17-.14-.46-.28-.48-.44s.23-.38.42-.47.32.21.6.4zm-8.52.24c1.15-.07 1.25 0 1 1.08zm2.38 13.24v-2.15h.1l.22 2.15zm-.68 3.06h1.76v.15a2.48 2.48 0 01-1.78.06zm2.18-4.45l-.33-1.88c.85.52.3 1.25.52 1.86zm.97-5.39c-.19-.27-.37-.42-.37-.57s.2-.27.32-.41l.6.49zm10.74 6.7l1.65-.09c-.32.58-.9.63-1.65.09zm-11.66 1.84h1.58v.24l-1.6.07zm-3.16-45.05v-2.2h.17v2.21zm5.39 31.69v-.7c.46 0 .83.05.74.48 0 .16-.38.27-.58.4zm4.83 12.54a4.5 4.5 0 01-1.9-.14v-.2l1.89.14zm-3.59-11.16l.55-.43c.12.14.34.28.34.41s-.22.27-.34.41zm.13-22.08l-.47 1.11c-.5-.56-.36-.81.47-1.11zm.46 24.85c.22.27.41.41.42.55s-.21.24-.32.37a1.8 1.8 0 01-.37-.42c-.02-.05.12-.23.27-.5zm6.71-41.23l-1.19.82-.18-.2 1.15-.85zm-3.22 48.62h-2.06v-.1h2.06zm-6.7-33.57c-.49-.38-.45-.85-.2-1.43l.44 1.39zm2.55 32.85c-.29.05-.57.12-.85.14-.1 0-.2-.12-.3-.18.08-.09.16-.25.24-.25.31 0 .62.06.93.09zm-2.54-8.58l.55.63-.11.2c-.2 0-.5.11-.58 0a1.67 1.67 0 01-.25-.61zm3.18 3.61c.15.15.36.28.43.45s-.17.26-.26.39l-.48-.6zm7.35-48.7l1.34-1 .18.17-1.32 1zm-12.23 56.65l-1.24.12v-.24l1.23-.21zm1.08-30.02l.42-.61.36.24-.5.55zm.42 15.19l.68.81c-.83.13-.91.03-.68-.81zm-1.12-34.32l.12-1.73h.2l-.09 1.73zm2.67 39.4l.67.84c-.8.05-.86-.02-.67-.84zm6.97-37.12l1.45-1 .14.16-1.46.94zm-4.7 29.95c-.94.15-1 .06-.81-.77zm-.08-6.82c-.14.07-.29.21-.43.2s-.27-.17-.41-.26c.12-.09.23-.23.35-.25a1.42 1.42 0 01.47.12zm.07-7.08l-.13 1.36h-.22l.13-1.36zm-5.7-9.96v-1.53h.13l.09 1.52zm12.65-14.25l1.44-.94.07.06-1.31 1.09zM105.12 170l-.76-.3.18-.34.72.43zm-.71-14.81l-.21-.9c.65.17.64.5.21.9zm2.57 33.19l-.71-.84c.73 0 .81.08.71.84zm-10.79-56.04l.53-.8.23.16-.54.76zm-13.72 60.45l-.72-.47.09-.17a1.94 1.94 0 01.48.16 2.15 2.15 0 001.63.22c2.18-.46 4.37-.9 6.55-1.33.26-.06.53-.07.8-.11v.2l-8.6 1.94.74.55-.08.13-1.71-.58zm-.55-10.09a52.85 52.85 0 015.35 2.45 29.43 29.43 0 01-5.51-2.19z" fill="#272727"/>
  <path d="M84.19 193.31a46 46 0 016.41-1.38v.17l-6.37 1.46zm6.85-.56l-5.48 1.28-.08-.28a27.84 27.84 0 015.52-1.19zm-4.14-32.97l-.76-.65.51-.86a4 4 0 01.79.54.53.53 0 010 .58 1.61 1.61 0 01-.54.39zm-2.11 25.59a10.9 10.9 0 01-3.17-1.29l.14-.25 3.12 1.38zm-.56 1.09a7.12 7.12 0 01-2.58-1.33 6.06 6.06 0 012.58 1.33zm-1.92 8.94l3.4-.28v.22l-3.39.35zm11.6-7.2h1.25c.11 0 .18.23.27.35-.14.07-.3.2-.44.18-.37-.06-.73-.17-1.09-.26zm-16.32-60.11l1.26-1.69.11.06-1.11 1.78zm10.31 30.47c.56-.16 1-.49 1.55-.08-.49.37-.92.6-1.55.08zm-2.76-.23l-.08-1.57h.33l.11 1.59zm-7.56-26.37l-1 1.39-.13-.08.94-1.47zm-.29-1.66l-.9 1.33-.22-.15.85-1.36zm17.82 59.46h-1.2c.42-.62.72-.63 1.2 0zm.05 1.36c-.26.45-.6.35-.93.18 0 0 0-.3.1-.38.37-.36.57-.04.83.2zm-20.84-58.85l.71-1.13.25.15-.68 1.17zm-2.79 3.57l.88-1.17.12.08-.88 1.18zm4.17-1.38l-.67 1.14-.27-.16.71-1.13zm3.53-4.69l-.94 1.25-.09-.06.94-1.25zm1.39 52.92a1 1 0 011 .63l-1.12-.46zm11.55-23.12l1.49-.72.12.2-1.49.71zm-8.76.51v-2.48h.14c0 .82-.09 1.64-.14 2.47zm7-.26l1.59-.69.1.17-1.58.7zm-15-27.02l-.67.9-.16-.12.7-.93zM128 158.18l.73-.91a4.46 4.46 0 01-1.27 0 4.84 4.84 0 01-1.05-.73l.1-.14c.77 0 1.54 0 2.3.12a1.12 1.12 0 01.71.49c.06.1-.18.42-.35.57a11.41 11.41 0 01-1 .76zm1.93-9.41c-1.46-1-.78-2.26-.86-3.38 1.34.86.89 2.07.86 3.38zm-.87-8.53a1.85 1.85 0 01.83 2.37c-.87-.48-1-.83-.83-2.37zm-4.48 12.22c-1.14.75-1.31.63-1.67-1h-.58c.52-.26.69-1.06 1.64-.75-.89.52-.53 1.25-.59 2zm4.42-16.8c.74.38.94.93.75 2.13a1.49 1.49 0 01-.75-2.13zm.52 15.56c-.9-.7-.4-1.56-.54-2.38a1.61 1.61 0 01.54 2.38zm.36-6.12a1.6 1.6 0 01-.83-2c.77.27 1 .81.83 2zm9.15-1.47l-5.35 2.75-.12-.19 5.35-2.73zm-4.95.43l4.49-2.68.13.18-4.49 2.65zm-4.74 9.75c-.6-.7-.31-1.48-.25-2.24.88.65.32 1.47.25 2.24zm9.69-8.35l-4.19 2-.12-.18 4.2-2zm-.32-5.77l-3.08 1.51a4.66 4.66 0 013.08-1.51zm.33-2.23c-.51.27-1 .54-1.53.79l-3 1.51-.08-.13 4.53-2.33zm-8.93 20.41a3 3 0 00-.58.4.62.62 0 00-.12.41v.88h-.39a4.22 4.22 0 01-.05-1.32.81.81 0 01.93-.58zm-1.18-19.57c.81.4 1 .82.93 1.53a1.33 1.33 0 01-.93-1.53zm-2.97-1.84l.16 2.05c-.74-.68-.76-.8-.41-2zm5.8 20.93l-1.76-.43a1.32 1.32 0 011.84.22zm-7.35-14.63c.62 1 .55 1.3-.42 1.7zm.19-5.01l.23 1.45c-.83-.47-.91-.91-.51-1.42zm.21 16.79v-2.59h.18v2.6zm4.22-.35c.63.55.32 1.06.22 1.7a1.55 1.55 0 01-.22-1.7zm-.9-19.55v1.41h-.17v-1.4zm1.28 47.95l1.67.87a1.45 1.45 0 01-2-.62c-.25-.42-.36-.84-1-1a.85.85 0 01-.45-1.11c.1-.32 0-.53-.45-.55-.93 0-1.15-.3-1-1.15a1.93 1.93 0 000-.24 2 2 0 01.08-.35l1.8 2.4c.07.1.14.23.25.27a1.52 1.52 0 011.1 1.48zm2.43 8.87l7.32 1.78c-.83.32-6.5-1-7.37-1.59zm2.63 2.72a11.59 11.59 0 014.45 1.31l-.06.16-4.45-1.19zm-.76-1.24l5.2 1.43-.06.18a50.74 50.74 0 01-5.23-1.35zm1.7 2.6a4 4 0 013.27 1.09l-3.34-.91zm-8.83-9.08c1.19-.31 1.26-.29 2.08.56l-.92.41-.14.17c-.15-.2-.29-.41-.46-.6s-.33-.29-.56-.54zm3.83-.28c1-.32 1.48-.19 2 .57-1.1.39-1.42.3-2-.57zm-2.55-3.72l1.28 1.19c-.62.42-1 .12-1.43-.19s-.21-.63.15-1zm2.35 6.1c-1.11.38-1.38.33-1.88-.27a1.24 1.24 0 011.88.27zm-1.2-2.71l1.47 1-.12.27a3.12 3.12 0 01-1.11-.27c-.27-.17-.34-.57-.5-.86zm-.16-1.25c.76-.36 1.22-.21 1.77.57-.64.39-1.14.23-1.77-.57zm.44-3.78c-1.18-1-1.42-1.35-1.54-2.11.75.56 1.66 1 1.54 2.11zm-4.25-.36l-1-1c.75-.33 1-.23 1.58.54l-.29.19c-.06.07-.15.16-.29.27zm.81 1l.6-.57.87 1c-.83.38-.86.37-1.47-.43zm1.42 2.42c-.88.06-1.18-.12-1.43-.82.62-.29.92-.13 1.43.82zm-.01.76l.59-.31.95 1c-.88.19-1.11.13-1.54-.69zm13.03 2.82c0 .52-.53.81-1.47.77.15-.61.59-.86 1.47-.77zm-9.11 4.35l-2.42-.64a2.15 2.15 0 012.42.64zm1.81-.63a4.78 4.78 0 01-2.41-.74l.06-.15 2.41.73zm-.41 1.86l-2.32-.57.11-.31 2.29.63zm6.33-3.81a.87.87 0 011.37-.46 1.21 1.21 0 01-1.37.46zm-7.09-.97c-.83.3-1 .25-1.32-.36a.91.91 0 011.32.36zm-6.41-6.4c-.53.33-.58.3-1-.49.52-.25.7-.16 1 .49zm10.87 10.1l-2.12-.47.08-.24 2.09.55zm-8.44-.22l1.61.38-.06.21-1.59-.38zm11.21-1.6c.33-.05.66-.1 1-.13a1.37 1.37 0 01.1.31l-1 .12zm.36 3.25l.88-.16a2.23 2.23 0 010 .38c-.29 0-.59.08-.88.11zm1-1.55l-1.06.38c.34-.76.54-.83 1.06-.38zm-5.84-65.93l-.11 1.17h-.14v-1.18zm-9.71 34.82c.34.47 1.62.46 1.16 1.61l-.94-.89c0 .57-.28 1 .19 1.45.09.08 0 .38-.08.52s-.32.18-.49.26a2.21 2.21 0 01-.16-.54 3.71 3.71 0 01.08-.71l-.72.56zM92.2 179.2l-1.4-.26.06-.24 1.4.26zm46.74-12.74l1.32-1 .14.15c-.15.61-.74.8-1.27 1z" fill="#272727"/>
</svg>
